<svg width="50" height="50" viewBox="0 0 50 50" fill="none" xmlns="http://www.w3.org/2000/svg">
<path d="M1.66602 48.3336H47.166M3.99935 27.3336V48.3336M45.9994 27.3336V48.3336M14.4993 15.667V48.3336M35.4994 15.667V48.3336M1.66602 27.3336H13.3327M48.3327 27.3336H36.666M12.166 15.667H37.8327M24.9994 15.667V8.62496M24.9994 8.62496V3.93029C24.9994 2.82429 24.9994 2.27129 25.34 1.92829C26.4134 0.847958 30.8327 3.40062 32.5127 4.43662C33.9314 5.30929 34.3327 7.05462 34.3327 8.62496H24.9994ZM24.9994 48.3336V43.667M21.4994 25.0003V26.167M28.4994 25.0003V26.167M21.4994 34.3336V35.5003M28.4994 34.3336V35.5003" stroke="#2EBB77" stroke-width="3" stroke-linecap="round" stroke-linejoin="round"/>
</svg>
