<svg width="56" height="49" viewBox="0 0 56 49" fill="none" xmlns="http://www.w3.org/2000/svg">
<path d="M54.9609 5.41406L42.7109 0.164062C42.4922 0.0546875 42.2552 0 42 0C41.7448 0 41.5078 0.0546875 41.2891 0.164062L29.0391 5.41406C28.7474 5.52344 28.5013 5.72396 28.3008 6.01562C28.1003 6.30729 28 6.63542 28 7V14C28 16.4062 28.237 18.5755 28.7109 20.5078C29.1849 22.4766 29.9414 24.2812 30.9805 25.9219C32.0195 27.5625 33.3776 29.112 35.0547 30.5703C36.6953 31.9922 38.7188 33.3958 41.125 34.7812C41.2708 34.8542 41.4167 34.9089 41.5625 34.9453C41.7083 34.9818 41.8542 35 42 35C42.1458 35 42.2917 34.9818 42.4375 34.9453C42.5833 34.9089 42.7292 34.8542 42.875 34.7812C45.2812 33.3958 47.3047 31.9922 48.9453 30.5703C50.6224 29.1484 51.9805 27.6081 53.0195 25.9492C54.0586 24.2904 54.8151 22.4948 55.2891 20.5625C55.763 18.5938 56 16.4062 56 14V7C56 6.63542 55.8997 6.30729 55.6992 6.01562C55.4987 5.72396 55.2526 5.52344 54.9609 5.41406ZM52.5 14C52.5 16.0052 52.3177 17.8099 51.9531 19.4141C51.5885 21.0547 50.9961 22.5495 50.1758 23.8984C49.3555 25.2474 48.2708 26.5052 46.9219 27.6719C45.6094 28.875 43.9688 30.0599 42 31.2266C40.0312 30.0599 38.3906 28.875 37.0781 27.6719C35.7292 26.5052 34.6445 25.2383 33.8242 23.8711C33.0039 22.5039 32.4115 21.0182 32.0469 19.4141C31.6823 17.8099 31.5 16.0052 31.5 14V8.14844L42 3.66406L52.5 8.14844V14ZM52.5 33.25V45.5H3.5V24.5H22.75C23.224 24.5 23.6341 24.3268 23.9805 23.9805C24.3268 23.6341 24.5 23.224 24.5 22.75C24.5 22.276 24.3268 21.8659 23.9805 21.5195C23.6341 21.1732 23.224 21 22.75 21H3.5V14H22.75C23.224 14 23.6341 13.8268 23.9805 13.4805C24.3268 13.1341 24.5 12.724 24.5 12.25C24.5 11.776 24.3268 11.3659 23.9805 11.0195C23.6341 10.6732 23.224 10.5 22.75 10.5H3.5C2.55208 10.5 1.73177 10.8372 1.03906 11.5117C0.346354 12.1862 0 13.0156 0 14V45.5C0 46.4479 0.346354 47.2682 1.03906 47.9609C1.73177 48.6536 2.55208 49 3.5 49H52.5C53.4479 49 54.2682 48.6536 54.9609 47.9609C55.6536 47.2682 56 46.4479 56 45.5V33.25C56 32.776 55.8268 32.3659 55.4805 32.0195C55.1341 31.6732 54.724 31.5 54.25 31.5C53.776 31.5 53.3659 31.6732 53.0195 32.0195C52.6732 32.3659 52.5 32.776 52.5 33.25ZM8.75 31.5C8.27604 31.5 7.86589 31.6732 7.51953 32.0195C7.17318 32.3659 7 32.776 7 33.25C7 33.724 7.17318 34.1341 7.51953 34.4805C7.86589 34.8268 8.27604 35 8.75 35H15.75C16.224 35 16.6341 34.8268 16.9805 34.4805C17.3268 34.1341 17.5 33.724 17.5 33.25C17.5 32.776 17.3268 32.3659 16.9805 32.0195C16.6341 31.6732 16.224 31.5 15.75 31.5H8.75ZM45.8828 11.1562L40.3594 18.0469L38.2266 14.7656C37.9349 14.3646 37.5521 14.1185 37.0781 14.0273C36.6042 13.9362 36.1667 14.0182 35.7656 14.2734C35.3646 14.5651 35.1185 14.9479 35.0273 15.4219C34.9362 15.8958 35.0182 16.3333 35.2734 16.7344L38.7734 21.9844C38.9557 22.2031 39.1654 22.3854 39.4023 22.5312C39.6393 22.6771 39.9036 22.75 40.1953 22.75H40.25C40.5052 22.75 40.7513 22.6953 40.9883 22.5859C41.2253 22.4766 41.4349 22.3125 41.6172 22.0938L48.6172 13.3438C48.9089 12.9792 49.0273 12.5508 48.9727 12.0586C48.918 11.5664 48.7083 11.1745 48.3438 10.8828C47.9792 10.5911 47.5508 10.4727 47.0586 10.5273C46.5664 10.582 46.1745 10.7917 45.8828 11.1562ZM54.9609 5.41406L42.7109 0.164062C42.4922 0.0546875 42.2552 0 42 0C41.7448 0 41.5078 0.0546875 41.2891 0.164062L29.0391 5.41406C28.7474 5.52344 28.5013 5.72396 28.3008 6.01562C28.1003 6.30729 28 6.63542 28 7V14C28 16.4062 28.237 18.5755 28.7109 20.5078C29.1849 22.4766 29.9414 24.2812 30.9805 25.9219C32.0195 27.5625 33.3776 29.112 35.0547 30.5703C36.6953 31.9922 38.7188 33.3958 41.125 34.7812C41.2708 34.8542 41.4167 34.9089 41.5625 34.9453C41.7083 34.9818 41.8542 35 42 35C42.1458 35 42.2917 34.9818 42.4375 34.9453C42.5833 34.9089 42.7292 34.8542 42.875 34.7812C45.2812 33.3958 47.3047 31.9922 48.9453 30.5703C50.6224 29.1484 51.9805 27.6081 53.0195 25.9492C54.0586 24.2904 54.8151 22.4948 55.2891 20.5625C55.763 18.5938 56 16.4062 56 14V7C56 6.63542 55.8997 6.30729 55.6992 6.01562C55.4987 5.72396 55.2526 5.52344 54.9609 5.41406ZM52.5 14C52.5 16.0052 52.3177 17.8099 51.9531 19.4141C51.5885 21.0547 50.9961 22.5495 50.1758 23.8984C49.3555 25.2474 48.2708 26.5052 46.9219 27.6719C45.6094 28.875 43.9688 30.0599 42 31.2266C40.0312 30.0599 38.3906 28.875 37.0781 27.6719C35.7292 26.5052 34.6445 25.2383 33.8242 23.8711C33.0039 22.5039 32.4115 21.0182 32.0469 19.4141C31.6823 17.8099 31.5 16.0052 31.5 14V8.14844L42 3.66406L52.5 8.14844V14ZM52.5 33.25V45.5H3.5V24.5H22.75C23.224 24.5 23.6341 24.3268 23.9805 23.9805C24.3268 23.6341 24.5 23.224 24.5 22.75C24.5 22.276 24.3268 21.8659 23.9805 21.5195C23.6341 21.1732 23.224 21 22.75 21H3.5V14H22.75C23.224 14 23.6341 13.8268 23.9805 13.4805C24.3268 13.1341 24.5 12.724 24.5 12.25C24.5 11.776 24.3268 11.3659 23.9805 11.0195C23.6341 10.6732 23.224 10.5 22.75 10.5H3.5C2.55208 10.5 1.73177 10.8372 1.03906 11.5117C0.346354 12.1862 0 13.0156 0 14V45.5C0 46.4479 0.346354 47.2682 1.03906 47.9609C1.73177 48.6536 2.55208 49 3.5 49H52.5C53.4479 49 54.2682 48.6536 54.9609 47.9609C55.6536 47.2682 56 46.4479 56 45.5V33.25C56 32.776 55.8268 32.3659 55.4805 32.0195C55.1341 31.6732 54.724 31.5 54.25 31.5C53.776 31.5 53.3659 31.6732 53.0195 32.0195C52.6732 32.3659 52.5 32.776 52.5 33.25ZM8.75 31.5C8.27604 31.5 7.86589 31.6732 7.51953 32.0195C7.17318 32.3659 7 32.776 7 33.25C7 33.724 7.17318 34.1341 7.51953 34.4805C7.86589 34.8268 8.27604 35 8.75 35H15.75C16.224 35 16.6341 34.8268 16.9805 34.4805C17.3268 34.1341 17.5 33.724 17.5 33.25C17.5 32.776 17.3268 32.3659 16.9805 32.0195C16.6341 31.6732 16.224 31.5 15.75 31.5H8.75ZM45.8828 11.1562L40.3594 18.0469L38.2266 14.7656C37.9349 14.3646 37.5521 14.1185 37.0781 14.0273C36.6042 13.9362 36.1667 14.0182 35.7656 14.2734C35.3646 14.5651 35.1185 14.9479 35.0273 15.4219C34.9362 15.8958 35.0182 16.3333 35.2734 16.7344L38.7734 21.9844C38.9557 22.2031 39.1654 22.3854 39.4023 22.5312C39.6393 22.6771 39.9036 22.75 40.1953 22.75H40.25C40.5052 22.75 40.7513 22.6953 40.9883 22.5859C41.2253 22.4766 41.4349 22.3125 41.6172 22.0938L48.6172 13.3438C48.9089 12.9792 49.0273 12.5508 48.9727 12.0586C48.918 11.5664 48.7083 11.1745 48.3438 10.8828C47.9792 10.5911 47.5508 10.4727 47.0586 10.5273C46.5664 10.582 46.1745 10.7917 45.8828 11.1562Z" fill="#2EBB77"/>
</svg>
