<svg width="50" height="49" viewBox="0 0 50 49" fill="none" xmlns="http://www.w3.org/2000/svg">
<path d="M33.1481 13.9997H33.1668M40.1481 13.9997H40.1668M48.3335 13.4933C48.3335 19.658 43.1091 24.656 36.6668 24.656C35.9077 24.656 35.1556 24.586 34.4105 24.446C33.8738 24.3457 33.6055 24.2967 33.4188 24.3247C33.2321 24.3527 32.9661 24.4927 32.4388 24.775C30.929 25.5797 29.1915 25.8503 27.5085 25.5427C28.1518 24.7478 28.5879 23.8058 28.7778 22.801C28.8945 22.1827 28.6051 21.583 28.1711 21.1443C26.1462 19.1122 25.0064 16.3621 25.0001 13.4933C25.0001 7.33101 30.2245 2.33301 36.6668 2.33301C43.1091 2.33301 48.3335 7.33101 48.3335 13.4933ZM14.5048 46.6663H8.00881C7.25515 46.6663 6.49681 46.559 5.80381 46.2627C3.54981 45.2943 2.40415 44.0133 1.87215 43.213C1.72776 42.9913 1.65683 42.7298 1.66939 42.4655C1.68195 42.2013 1.77738 41.9477 1.94215 41.7407C4.55548 38.2687 10.6221 36.1733 14.5165 36.1733C18.4085 36.1733 24.4658 38.2687 27.0791 41.7407C27.4081 42.177 27.4525 42.758 27.1491 43.213C26.6148 44.0133 25.4691 45.2943 23.2151 46.2627C22.5149 46.5445 21.7648 46.6818 21.0101 46.6663H14.5048ZM21.0008 24.0073C20.9996 24.858 20.8308 25.7 20.5042 26.4854C20.1775 27.2708 19.6994 27.9842 19.097 28.5848C18.4947 29.1854 17.78 29.6615 16.9936 29.9859C16.2073 30.3102 15.3648 30.4766 14.5141 30.4753C12.7971 30.4766 11.1497 29.796 9.93426 28.5831C8.71878 27.3703 8.03462 25.7244 8.03215 24.0073C8.03307 23.1567 8.20152 22.3146 8.52788 21.5291C8.85425 20.7436 9.33214 20.0301 9.93426 19.4292C10.5364 18.8284 11.251 18.3521 12.0372 18.0274C12.8234 17.7027 13.6659 17.5361 14.5165 17.537C15.3671 17.5361 16.2096 17.7027 16.9958 18.0274C17.782 18.3521 18.4966 18.8284 19.0987 19.4292C19.7008 20.0301 20.1787 20.7436 20.5051 21.5291C20.8314 22.3146 20.9999 23.1567 21.0008 24.0073Z" stroke="#2EBB77" stroke-width="3" stroke-linecap="round" stroke-linejoin="round"/>
</svg>
