<svg fill="none" height="16" viewBox="0 0 16 16" width="16" xmlns="http://www.w3.org/2000/svg"><path d="m8 2c3.866 0 7 2.44267 7 5.45667 0 3.01333-3.134 5.45603-7 5.45603-.38495.0002-.76952-.0243-1.15133-.0734l-2.93867 1.922c-.334.1767-.452.1574-.31467-.2753l.59467-2.452c-1.92-.9733-3.19-2.66-3.19-4.57733 0-3.01334 3.134-5.45667 7-5.45667zm3.938 5.37333.98-.94933c.0565-.05873.0881-.13711.088-.21864-.0001-.08152-.0318-.15983-.0885-.21842s-.1339-.09289-.2154-.09568-.1609.02616-.2214.08074l-1.2854 1.244v-1.028c0-.08346-.0331-.16349-.0921-.2225s-.1391-.09217-.2225-.09217c-.0835 0-.1635.03316-.2225.09217s-.0922.13904-.0922.2225v1.70467c-.0118.04862-.0118.09937 0 .148v.95933c0 .08345.0332.16349.0922.2225s.139.09217.2225.09217c.0834 0 .1635-.03316.2225-.09217s.0921-.13905.0921-.2225v-.90867l.2847-.27533.952 1.35533c.0238.03384.054.06266.0889.08483s.0738.03724.1146.04436c.0407.00712.0824.00614.1228-.00287.0403-.00901.0785-.02588.1124-.04965.0338-.02377.0626-.05397.0848-.08888s.0372-.07384.0444-.11458c.0071-.04073.0061-.08247-.0029-.12282-.009-.04036-.0259-.07855-.0497-.11239l-1.0093-1.43666zm-1.972 1.28267h-.97333v-2.458c-.00373-.08086-.03847-.15718-.09701-.21308-.05854-.05591-.13638-.08711-.21733-.08711-.08094 0-.15878.0312-.21732.08711-.05854.0559-.09329.13222-.09701.21308v2.77267c0 .17333.14.31466.314.31466h1.288c.0835 0 .1635-.03315.2225-.09216s.0922-.13905.0922-.2225c0-.08346-.0332-.1635-.0922-.22251s-.139-.09216-.2225-.09216zm-3.90467-.728.464-1.138.42534 1.138zm1.682.32533.00134-.01066c-.00016-.07928-.03042-.15553-.08467-.21334l-.69733-1.86666c-.02923-.08896-.08492-.16687-.15961-.22334s-.16484-.08879-.25839-.09266c-.09424-.00042-.18638.02787-.26414.08111-.07777.05323-.13748.12888-.1712.21689l-1.10733 2.71666c-.01563.03826-.02357.07922-.02336.12055.0002.04133.00854.08221.02454.12031.01601.0381.03936.07268.06872.10176.02937.02908.06417.05209.10243.06772.03826.01562.07922.02356.12055.02336s.08221-.00854.12031-.02455c.0381-.016.07268-.03935.10176-.06872.02908-.02936.05209-.06417.06772-.10243l.22-.542h1.38l.19933.53334c.01355.03986.03497.0766.06298.10804s.06204.05694.10009.07498c.03804.01805.07932.02827.12138.03008.04207.0018.08407-.00486.12352-.01959.03945-.01472.07554-.03722.10613-.06614.0306-.02893.05508-.06371.07199-.10227s.02592-.08012.02647-.12222c.00056-.0421-.00734-.08389-.02323-.12288zm-2.21466-2.052c0-.08334-.03306-.16327-.09193-.22226-.05887-.059-.13873-.09223-.22207-.0924h-2.16334c-.08345 0-.16349.03315-.2225.09216s-.09216.13905-.09216.2225c0 .08346.03315.16349.09216.22251.05901.05901.13905.09216.2225.09216h.77334v2.49067c0 .08345.03315.16349.09216.2225s.13905.09216.2225.09216c.08346 0 .16349-.03315.22251-.09216.05901-.05901.09216-.13905.09216-.2225v-2.49067h.76c.174 0 .31467-.14133.31467-.31467z" fill="#001018"/></svg>