<svg width="483" height="483" viewBox="0 0 483 483" fill="none" xmlns="http://www.w3.org/2000/svg">
<path d="M382.585 315.266C382.332 315.266 382.089 315.167 381.91 314.988C381.731 314.808 381.63 314.566 381.63 314.312V276.644C381.63 276.391 381.731 276.148 381.91 275.97C382.089 275.791 382.332 275.689 382.585 275.689C382.839 275.689 383.08 275.791 383.261 275.97C383.44 276.148 383.539 276.391 383.539 276.644V314.312C383.539 314.566 383.44 314.808 383.261 314.988C383.08 315.167 382.839 315.266 382.585 315.266Z" fill="#181C61"/>
<path d="M251.717 415.757L354.713 368.307L368.018 379.879L282.386 419.806L251.717 415.757Z" fill="#D272FF"/>
<path d="M282.386 420.761H282.262L251.593 416.714C251.387 416.686 251.197 416.593 251.049 416.448C250.903 416.302 250.806 416.113 250.775 415.909C250.745 415.704 250.78 415.495 250.88 415.313C250.978 415.131 251.133 414.985 251.321 414.899L354.311 367.454C354.479 367.377 354.664 367.35 354.846 367.374C355.028 367.4 355.2 367.477 355.338 367.598L368.643 379.17C368.764 379.273 368.858 379.407 368.914 379.557C368.97 379.705 368.99 379.866 368.967 380.025C368.946 380.183 368.885 380.333 368.79 380.461C368.695 380.59 368.569 380.692 368.424 380.759L282.787 420.671C282.661 420.732 282.524 420.763 282.386 420.761ZM255.116 415.242L282.233 418.823L366.285 379.637L354.551 369.436L255.116 415.242Z" fill="#181C61"/>
<path d="M211.72 87.9167C211.72 87.9167 215.478 82.2785 224.352 86.3795C233.228 90.4805 242.737 95.6793 243.419 112.16C243.419 112.16 235.533 122.83 234.936 126.004C234.936 126.004 232.206 121.908 232.033 109.62C232.033 109.62 206.431 106.459 196.53 112.861L197.169 126.945L186.456 115.253C186.456 115.253 184.236 104.583 193.793 94.9393C203.351 85.2958 208.135 84.5748 211.72 87.9167Z" fill="#181C61"/>
<path d="M197.169 127.857C197.037 127.857 196.905 127.83 196.782 127.776C196.662 127.723 196.552 127.645 196.462 127.547L185.749 115.855C185.633 115.727 185.554 115.571 185.52 115.401C185.424 114.948 183.31 104.12 193.116 94.2235C201.633 85.6302 207.243 83.2813 211.62 86.5851C213.182 85.0478 217.406 82.1165 224.753 85.506C234.302 89.9174 243.688 95.5985 244.371 112.112C244.38 112.329 244.316 112.543 244.189 112.718C241.072 116.939 236.282 123.995 235.876 126.157C235.841 126.343 235.751 126.514 235.617 126.649C235.484 126.783 235.313 126.875 235.128 126.912C234.943 126.949 234.749 126.931 234.574 126.858C234.398 126.786 234.249 126.663 234.144 126.506C234.03 126.334 231.38 122.209 231.093 110.446C226.744 109.969 206.302 108.193 197.508 113.353L198.123 126.874C198.133 127.07 198.08 127.265 197.974 127.43C197.869 127.596 197.715 127.725 197.531 127.8C197.415 127.842 197.293 127.862 197.169 127.857ZM187.348 114.771L196.095 124.319L195.575 112.862C195.567 112.695 195.602 112.529 195.679 112.381C195.755 112.233 195.869 112.107 196.008 112.017C206.087 105.505 231.093 108.498 232.154 108.627C232.386 108.656 232.598 108.77 232.753 108.946C232.906 109.122 232.991 109.348 232.988 109.582C233.089 116.905 234.125 121.254 234.899 123.498C236.855 119.579 241.3 113.435 242.456 111.864C241.706 96.6727 233.279 91.5453 223.956 87.2439C215.983 83.5631 212.655 88.2464 212.499 88.4469C212.42 88.56 212.319 88.6555 212.201 88.727C212.084 88.7986 211.952 88.8447 211.815 88.8622C211.678 88.8782 211.54 88.8642 211.409 88.8213C211.277 88.7785 211.158 88.7077 211.057 88.614C208.436 86.184 204.612 85.3437 194.462 95.5841C186.193 103.92 187.114 113.167 187.348 114.771Z" fill="#181C61"/>
<path d="M214.513 154.038H214.416H214.317L213.959 154C213.727 153.971 213.513 153.857 213.36 153.681C213.206 153.505 213.122 153.279 213.124 153.045C213.12 153.005 213.12 152.966 213.124 152.926C213.138 152.801 213.178 152.681 213.239 152.572C213.302 152.463 213.384 152.367 213.484 152.29C213.582 152.213 213.695 152.156 213.816 152.122C213.937 152.089 214.064 152.08 214.188 152.095L214.494 152.129H214.603C214.84 152.152 215.059 152.263 215.218 152.44C215.376 152.616 215.464 152.846 215.463 153.083C215.464 153.117 215.464 153.15 215.463 153.184C215.437 153.418 215.328 153.635 215.152 153.793C214.977 153.951 214.748 154.038 214.513 154.038Z" fill="#181C61"/>
<path d="M216.471 153.184C216.199 153.184 215.931 153.184 215.664 153.184C215.931 153.179 216.199 153.184 216.471 153.184Z" fill="#181C61"/>
<path d="M216.471 154.137C216.189 154.137 215.907 154.137 215.626 154.137C215.379 154.127 215.146 154.022 214.975 153.844C214.805 153.666 214.708 153.429 214.708 153.182V153.139C214.719 152.887 214.83 152.649 215.017 152.478C215.202 152.307 215.449 152.217 215.701 152.227C215.954 152.227 216.213 152.227 216.471 152.227C216.724 152.227 216.967 152.328 217.146 152.507C217.324 152.686 217.426 152.929 217.426 153.182C217.426 153.435 217.324 153.678 217.146 153.857C216.967 154.036 216.724 154.137 216.471 154.137Z" fill="#181C61"/>
<path d="M215.373 154.104H215.259L214.781 154.075C214.541 154.056 214.317 153.947 214.155 153.77C213.992 153.593 213.902 153.361 213.903 153.12V153.039C213.913 152.914 213.947 152.792 214.005 152.68C214.063 152.569 214.142 152.47 214.237 152.388C214.333 152.307 214.444 152.246 214.563 152.208C214.683 152.169 214.808 152.155 214.934 152.165L215.354 152.189H215.417C215.66 152.203 215.89 152.309 216.058 152.487C216.225 152.665 216.318 152.9 216.318 153.144V153.197C216.305 153.44 216.201 153.669 216.025 153.838C215.85 154.006 215.616 154.102 215.373 154.104Z" fill="#181C61"/>
<path d="M219.01 153.98C218.764 153.98 218.527 153.885 218.35 153.715C218.171 153.546 218.066 153.314 218.055 153.068V153.025C218.055 152.779 218.15 152.542 218.319 152.365C218.49 152.187 218.722 152.081 218.966 152.07H219.248C219.501 152.054 219.75 152.14 219.939 152.307C220.129 152.474 220.245 152.71 220.261 152.963C220.262 152.984 220.262 153.004 220.261 153.025C220.261 153.269 220.169 153.503 220.002 153.681C219.834 153.858 219.607 153.965 219.364 153.98H219.268H219.049H219.01Z" fill="#181C61"/>
<path d="M209.839 152.982C209.73 152.983 209.622 152.965 209.519 152.93L209.252 152.83C209.07 152.762 208.914 152.64 208.803 152.48C208.691 152.321 208.632 152.131 208.632 151.937C208.632 151.823 208.651 151.71 208.688 151.603C208.732 151.485 208.799 151.377 208.885 151.285C208.972 151.193 209.075 151.12 209.189 151.068C209.303 151.016 209.426 150.987 209.551 150.983C209.677 150.979 209.802 151 209.92 151.044L210.163 151.13C210.374 151.207 210.553 151.355 210.664 151.549C210.776 151.744 210.817 151.971 210.778 152.192C210.739 152.413 210.623 152.614 210.453 152.758C210.28 152.903 210.063 152.982 209.839 152.982Z" fill="#181C61"/>
<path d="M209.113 152.705C208.991 152.705 208.868 152.683 208.754 152.638L208.511 152.538C208.339 152.464 208.191 152.341 208.086 152.184C207.983 152.027 207.928 151.843 207.928 151.654C207.93 151.528 207.954 151.404 208.001 151.287C208.049 151.171 208.12 151.066 208.208 150.978C208.299 150.889 208.403 150.82 208.521 150.772C208.637 150.725 208.761 150.701 208.886 150.701C209.012 150.702 209.136 150.727 209.252 150.776L209.471 150.867C209.648 150.938 209.797 151.06 209.904 151.217C210.01 151.374 210.068 151.56 210.068 151.75C210.066 151.874 210.042 151.997 209.995 152.113C209.925 152.288 209.802 152.438 209.644 152.543C209.487 152.648 209.302 152.705 209.113 152.705Z" fill="#181C61"/>
<path d="M210.583 153.236C210.487 153.236 210.39 153.22 210.297 153.188L210.002 153.097C209.81 153.034 209.645 152.912 209.527 152.75C209.409 152.587 209.347 152.391 209.347 152.19C209.347 152.088 209.363 151.987 209.395 151.89C209.434 151.77 209.496 151.66 209.579 151.565C209.661 151.47 209.76 151.392 209.873 151.336C209.986 151.28 210.108 151.246 210.232 151.237C210.358 151.228 210.483 151.244 210.602 151.283L210.87 151.369C211.065 151.43 211.234 151.551 211.354 151.715C211.473 151.88 211.539 152.078 211.538 152.281C211.538 152.378 211.523 152.474 211.496 152.567C211.435 152.761 211.312 152.931 211.15 153.051C210.986 153.171 210.788 153.236 210.583 153.236Z" fill="#181C61"/>
<path d="M213.697 153.937C213.65 153.942 213.604 153.942 213.559 153.937H213.449L213.148 153.894C212.897 153.854 212.673 153.715 212.525 153.51C212.377 153.304 212.317 153.048 212.357 152.798C212.398 152.548 212.536 152.325 212.742 152.177C212.947 152.028 213.203 151.968 213.452 152.008L213.721 152.047H213.835C214.064 152.08 214.272 152.195 214.423 152.371C214.573 152.546 214.653 152.77 214.652 153.001C214.657 153.046 214.657 153.091 214.652 153.135C214.615 153.361 214.499 153.566 214.323 153.713C214.148 153.861 213.926 153.94 213.697 153.937Z" fill="#181C61"/>
<path d="M212.894 153.799C212.837 153.806 212.779 153.806 212.723 153.799H212.631C212.531 153.799 212.436 153.766 212.34 153.742C212.126 153.698 211.932 153.581 211.792 153.412C211.654 153.242 211.578 153.03 211.577 152.811C211.57 152.746 211.57 152.68 211.577 152.615C211.628 152.368 211.776 152.151 211.987 152.012C212.198 151.873 212.456 151.824 212.704 151.875L212.932 151.918H213.047C213.301 151.941 213.534 152.064 213.695 152.26C213.858 152.456 213.937 152.708 213.913 152.961C213.89 153.214 213.766 153.448 213.571 153.61C213.375 153.773 213.124 153.851 212.871 153.828L212.894 153.799Z" fill="#181C61"/>
<path d="M211.338 153.455C211.254 153.456 211.17 153.444 211.09 153.421L210.77 153.331C210.57 153.274 210.394 153.154 210.27 152.988C210.145 152.823 210.077 152.621 210.077 152.414C210.076 152.325 210.089 152.236 210.116 152.151C210.185 151.909 210.349 151.703 210.57 151.581C210.791 151.458 211.051 151.428 211.294 151.497L211.591 151.579C211.792 151.634 211.971 151.754 212.096 151.921C212.223 152.087 212.293 152.291 212.293 152.5C212.293 152.584 212.281 152.667 212.259 152.748C212.204 152.951 212.085 153.13 211.918 153.258C211.752 153.386 211.547 153.455 211.338 153.455Z" fill="#181C61"/>
<path d="M212.111 153.647C212.04 153.646 211.971 153.638 211.902 153.623H211.839L211.548 153.556C211.34 153.506 211.155 153.387 211.023 153.219C210.891 153.051 210.818 152.844 210.818 152.63C210.818 152.552 210.828 152.475 210.846 152.401C210.907 152.155 211.063 151.944 211.28 151.813C211.496 151.682 211.755 151.643 212.002 151.704L212.322 151.775C212.551 151.827 212.752 151.962 212.887 152.153C213.024 152.344 213.084 152.579 213.058 152.812C213.032 153.045 212.921 153.26 212.747 153.417C212.572 153.574 212.346 153.66 212.111 153.661V153.647Z" fill="#181C61"/>
<path d="M228.82 149.765C228.678 149.765 228.537 149.734 228.408 149.673C228.279 149.611 228.166 149.522 228.076 149.411C227.938 149.239 227.862 149.026 227.86 148.805C227.864 148.666 227.894 148.529 227.955 148.404C228.015 148.278 228.102 148.168 228.21 148.079L228.419 147.912C228.615 147.753 228.867 147.677 229.118 147.702C229.369 147.727 229.601 147.851 229.762 148.046C229.921 148.242 229.997 148.493 229.971 148.744C229.947 148.996 229.823 149.227 229.628 149.388L229.432 149.55C229.259 149.69 229.044 149.766 228.82 149.765Z" fill="#181C61"/>
<path d="M207.695 152.071C207.552 152.07 207.41 152.037 207.28 151.976L207.075 151.89C206.959 151.835 206.856 151.758 206.771 151.662C206.687 151.567 206.621 151.455 206.581 151.334C206.539 151.213 206.523 151.085 206.533 150.958C206.541 150.83 206.576 150.706 206.634 150.592C206.692 150.479 206.772 150.378 206.871 150.296C206.969 150.213 207.082 150.152 207.204 150.114C207.326 150.077 207.455 150.064 207.582 150.077C207.709 150.09 207.832 150.129 207.944 150.19L208.115 150.276C208.337 150.392 208.505 150.591 208.582 150.829C208.659 151.068 208.638 151.327 208.526 151.551C208.448 151.704 208.329 151.834 208.183 151.926C208.036 152.017 207.869 152.068 207.695 152.071Z" fill="#181C61"/>
<path d="M208.401 152.405C208.266 152.404 208.132 152.375 208.01 152.319L207.791 152.218C207.625 152.142 207.485 152.02 207.387 151.867C207.29 151.714 207.237 151.536 207.237 151.354C207.237 151.216 207.268 151.078 207.327 150.953C207.379 150.839 207.453 150.736 207.545 150.65C207.637 150.564 207.743 150.496 207.86 150.452C207.978 150.408 208.103 150.387 208.229 150.391C208.355 150.395 208.479 150.424 208.593 150.476L208.793 150.567C208.994 150.655 209.158 150.81 209.258 151.006C209.358 151.201 209.388 151.425 209.342 151.64C209.297 151.855 209.177 152.047 209.007 152.185C208.834 152.322 208.622 152.397 208.401 152.395V152.405Z" fill="#181C61"/>
<path d="M229.56 149.144C229.307 149.144 229.064 149.043 228.886 148.864C228.707 148.685 228.605 148.442 228.605 148.189C228.605 148.055 228.634 147.922 228.689 147.799C228.746 147.677 228.826 147.567 228.926 147.478L229.04 147.377C229.134 147.293 229.241 147.227 229.359 147.184C229.478 147.141 229.604 147.122 229.729 147.128C229.855 147.134 229.977 147.164 230.091 147.218C230.204 147.271 230.307 147.346 230.391 147.439C230.549 147.617 230.637 147.846 230.639 148.084C230.639 148.217 230.612 148.349 230.557 148.471C230.502 148.592 230.423 148.701 230.325 148.791L230.191 148.905C230.017 149.059 229.792 149.144 229.56 149.144Z" fill="#181C61"/>
<path d="M206.359 151.336C206.191 151.334 206.027 151.288 205.882 151.202L205.749 151.116C205.605 151.033 205.485 150.914 205.401 150.771C205.317 150.628 205.272 150.466 205.271 150.3C205.272 150.133 205.319 149.97 205.403 149.826C205.488 149.682 205.609 149.563 205.754 149.481C205.898 149.398 206.061 149.355 206.228 149.355C206.396 149.356 206.559 149.4 206.703 149.483L206.832 149.565C206.976 149.648 207.095 149.766 207.178 149.909C207.262 150.053 207.307 150.215 207.309 150.381C207.307 150.549 207.262 150.714 207.175 150.858C207.093 151.002 206.974 151.121 206.831 151.205C206.687 151.289 206.525 151.334 206.359 151.336Z" fill="#181C61"/>
<path d="M205.715 150.934C205.53 150.934 205.349 150.881 205.195 150.781L205.118 150.728C204.982 150.638 204.871 150.516 204.794 150.373C204.717 150.23 204.675 150.07 204.675 149.907C204.675 149.726 204.728 149.549 204.828 149.396C204.965 149.189 205.177 149.043 205.422 148.99C205.665 148.938 205.919 148.982 206.13 149.115L206.169 149.139L206.235 149.182C206.369 149.268 206.478 149.386 206.554 149.525C206.629 149.664 206.67 149.82 206.67 149.979C206.668 150.164 206.615 150.345 206.512 150.499C206.426 150.632 206.307 150.741 206.169 150.817C206.029 150.893 205.874 150.933 205.715 150.934Z" fill="#181C61"/>
<path d="M207.023 151.718C206.856 151.72 206.692 151.679 206.545 151.598L206.387 151.508C206.242 151.424 206.122 151.302 206.038 151.157C205.953 151.011 205.909 150.845 205.911 150.677C205.908 150.51 205.949 150.346 206.03 150.2C206.154 149.979 206.36 149.816 206.603 149.747C206.846 149.678 207.107 149.709 207.328 149.832L207.481 149.918C207.667 150.021 207.814 150.183 207.898 150.379C207.981 150.575 207.996 150.794 207.941 150.999C207.886 151.205 207.764 151.387 207.595 151.515C207.424 151.644 207.217 151.712 207.004 151.708L207.023 151.718Z" fill="#181C61"/>
<path d="M228.08 150.338C227.878 150.339 227.681 150.275 227.517 150.157C227.354 150.038 227.232 149.871 227.169 149.679C227.106 149.487 227.106 149.28 227.169 149.088C227.232 148.895 227.353 148.728 227.517 148.61C227.597 148.552 227.68 148.495 227.755 148.433C227.958 148.28 228.212 148.214 228.462 148.249C228.713 148.284 228.94 148.417 229.093 148.619C229.22 148.783 229.29 148.985 229.288 149.192C229.288 149.34 229.256 149.486 229.19 149.618C229.124 149.751 229.029 149.866 228.911 149.956L228.644 150.156C228.48 150.275 228.283 150.339 228.08 150.338Z" fill="#181C61"/>
<path d="M227.352 150.849C227.145 150.85 226.944 150.785 226.778 150.662C226.614 150.54 226.492 150.368 226.432 150.171C226.373 149.974 226.379 149.763 226.448 149.569C226.519 149.376 226.65 149.21 226.82 149.097L227.065 148.935C227.273 148.791 227.53 148.737 227.78 148.784C228.028 148.83 228.248 148.974 228.392 149.183C228.535 149.392 228.59 149.649 228.543 149.898C228.496 150.147 228.353 150.367 228.144 150.51L228.062 150.563L227.881 150.691C227.723 150.794 227.538 150.848 227.352 150.849Z" fill="#181C61"/>
<path d="M226.606 151.321C226.44 151.32 226.278 151.274 226.134 151.191C225.991 151.107 225.872 150.988 225.79 150.844C225.703 150.7 225.655 150.535 225.651 150.367C225.653 150.201 225.698 150.038 225.782 149.895C225.865 149.752 225.985 149.633 226.128 149.55L226.286 149.45C226.394 149.385 226.513 149.341 226.637 149.322C226.761 149.303 226.886 149.308 227.009 149.338C227.131 149.367 227.245 149.421 227.347 149.495C227.448 149.569 227.533 149.663 227.599 149.77C227.688 149.913 227.738 150.078 227.743 150.247C227.74 150.413 227.696 150.575 227.612 150.719C227.529 150.862 227.408 150.981 227.265 151.064L227.102 151.164C226.955 151.261 226.783 151.316 226.606 151.321Z" fill="#181C61"/>
<path d="M197.05 140.292H196.931C193.183 139.815 189.917 136.473 188.2 131.355C186.963 127.65 186.672 122.996 188.8 120.943C189.254 120.467 189.805 120.097 190.415 119.856C191.027 119.615 191.682 119.511 192.337 119.549C195.012 119.73 197.079 122.308 197.169 122.413C197.327 122.612 197.399 122.865 197.37 123.117C197.341 123.369 197.212 123.599 197.014 123.757C196.815 123.915 196.562 123.987 196.311 123.958C196.058 123.929 195.828 123.801 195.67 123.602C195.631 123.554 194.013 121.568 192.204 121.449C191.816 121.432 191.428 121.5 191.067 121.649C190.708 121.799 190.386 122.025 190.124 122.313C188.863 123.53 188.815 127.154 190.012 130.744C191.154 134.157 193.632 137.962 197.174 138.382C197.428 138.398 197.665 138.513 197.832 138.703C198.001 138.892 198.087 139.141 198.072 139.394C198.056 139.648 197.942 139.885 197.752 140.053C197.562 140.221 197.312 140.307 197.059 140.292H197.05Z" fill="#181C61"/>
<path d="M194.329 133.92C193.789 133.891 193.265 133.739 192.793 133.476C192.321 133.213 191.915 132.846 191.608 132.402C189.988 130.388 189.172 126.54 190.542 124.602C190.758 124.276 191.048 124.006 191.386 123.812C191.725 123.619 192.105 123.508 192.495 123.489C194.586 123.394 196.792 125.79 197.212 126.277C197.309 126.369 197.385 126.479 197.436 126.602C197.486 126.725 197.512 126.857 197.509 126.989C197.505 127.122 197.475 127.253 197.418 127.373C197.362 127.493 197.282 127.601 197.182 127.688C197.082 127.775 196.964 127.841 196.839 127.88C196.712 127.92 196.578 127.933 196.446 127.918C196.314 127.902 196.187 127.86 196.072 127.793C195.957 127.726 195.858 127.636 195.779 127.528C194.982 126.616 193.474 125.356 192.6 125.394C192.501 125.403 192.406 125.436 192.323 125.49C192.239 125.544 192.171 125.618 192.123 125.704C191.36 126.783 191.88 129.667 193.121 131.209C193.675 131.901 194.215 132.164 194.725 131.93C194.957 131.84 195.214 131.845 195.443 131.943C195.672 132.04 195.853 132.224 195.948 132.453C196.045 132.683 196.048 132.94 195.957 133.171C195.865 133.403 195.688 133.589 195.461 133.691C195.103 133.844 194.717 133.922 194.329 133.92Z" fill="#181C61"/>
<path d="M194.305 132.655C194.884 132.655 195.354 132.185 195.354 131.605C195.354 131.025 194.884 130.555 194.305 130.555C193.725 130.555 193.255 131.025 193.255 131.605C193.255 132.185 193.725 132.655 194.305 132.655Z" fill="#181C61"/>
<path d="M194.304 133.608C193.845 133.607 193.401 133.448 193.047 133.158C192.693 132.868 192.448 132.465 192.356 132.016C192.263 131.568 192.327 131.101 192.538 130.694C192.749 130.287 193.094 129.966 193.514 129.783C193.934 129.6 194.404 129.567 194.845 129.69C195.286 129.813 195.673 130.084 195.937 130.458C196.202 130.832 196.331 131.285 196.301 131.742C196.272 132.199 196.085 132.632 195.774 132.969C195.596 133.162 195.38 133.318 195.142 133.428C194.902 133.538 194.642 133.599 194.38 133.608H194.304ZM194.304 131.508C194.279 131.51 194.256 131.522 194.238 131.54C194.222 131.559 194.213 131.583 194.213 131.608C194.214 131.62 194.217 131.633 194.222 131.644C194.227 131.656 194.235 131.666 194.245 131.674C194.253 131.682 194.264 131.689 194.277 131.693C194.288 131.697 194.301 131.699 194.314 131.699C194.338 131.695 194.361 131.683 194.377 131.665C194.393 131.647 194.403 131.623 194.404 131.598C194.401 131.573 194.39 131.55 194.372 131.534C194.353 131.517 194.328 131.508 194.304 131.508Z" fill="#181C61"/>
<path d="M236.335 139.51C236.082 139.53 235.831 139.449 235.638 139.284C235.445 139.119 235.324 138.885 235.303 138.631C235.284 138.378 235.364 138.127 235.53 137.934C235.694 137.74 235.929 137.62 236.182 137.6C239.695 137.032 242.026 133.136 243.033 129.685C244.092 126.047 243.907 122.428 242.598 121.258C242.324 120.984 241.993 120.771 241.629 120.636C241.265 120.501 240.875 120.446 240.489 120.475C238.67 120.666 237.118 122.743 237.103 122.762C236.955 122.967 236.73 123.103 236.48 123.142C236.229 123.181 235.974 123.119 235.77 122.97C235.566 122.82 235.429 122.596 235.388 122.346C235.35 122.095 235.413 121.84 235.562 121.635C235.648 121.521 237.615 118.862 240.278 118.58C240.932 118.516 241.592 118.595 242.212 118.812C242.831 119.029 243.397 119.378 243.868 119.836C246.074 121.803 245.96 126.467 244.867 130.219C243.348 135.418 240.217 138.884 236.488 139.486C236.438 139.498 236.387 139.506 236.335 139.51Z" fill="#181C61"/>
<path d="M91.318 357.355H41.8489C41.5957 357.355 41.3527 357.255 41.1737 357.075C40.9947 356.896 40.894 356.653 40.894 356.4C40.894 356.147 40.9947 355.904 41.1737 355.725C41.3527 355.545 41.5957 355.445 41.8489 355.445H91.318C91.571 355.445 91.814 355.545 91.993 355.725C92.1721 355.904 92.2727 356.147 92.2727 356.4C92.2727 356.653 92.1721 356.896 91.993 357.075C91.814 357.255 91.571 357.355 91.318 357.355Z" fill="#181C61"/>
<path d="M416.414 357.355H366.94C366.686 357.355 366.444 357.255 366.264 357.075C366.085 356.896 365.985 356.653 365.985 356.4C365.985 356.147 366.085 355.904 366.264 355.725C366.444 355.545 366.686 355.445 366.94 355.445H416.414C416.667 355.445 416.91 355.545 417.088 355.725C417.267 355.904 417.369 356.147 417.369 356.4C417.369 356.653 417.267 356.896 417.088 357.075C416.91 357.255 416.667 357.355 416.414 357.355Z" fill="#181C61"/>
<path d="M226.606 151.321C226.44 151.319 226.277 151.274 226.134 151.191C225.991 151.107 225.873 150.987 225.79 150.844C225.659 150.627 225.62 150.368 225.682 150.123C225.743 149.877 225.897 149.666 226.115 149.536C227.404 148.759 228.596 147.831 229.666 146.771C231.45 145.033 232.867 142.954 233.833 140.658C234.799 138.362 235.295 135.895 235.29 133.404V116.298C235.29 116.045 235.39 115.802 235.57 115.623C235.749 115.444 235.992 115.344 236.245 115.344C236.498 115.344 236.741 115.444 236.919 115.623C237.1 115.802 237.2 116.045 237.2 116.298V133.409C237.203 136.155 236.655 138.874 235.59 141.404C234.524 143.935 232.96 146.226 230.993 148.142C229.816 149.309 228.504 150.331 227.084 151.188C226.939 151.273 226.775 151.32 226.606 151.321Z" fill="#181C61"/>
<path d="M216.471 154.137C212.179 154.147 207.991 152.811 204.497 150.318C201.797 148.403 199.593 145.87 198.07 142.932C196.546 139.993 195.745 136.733 195.736 133.423V120.256C195.736 120.002 195.837 119.759 196.016 119.58C196.195 119.401 196.438 119.301 196.691 119.301C196.945 119.301 197.188 119.401 197.367 119.58C197.545 119.759 197.647 120.002 197.647 120.256V133.408C197.655 136.414 198.383 139.374 199.767 142.042C201.15 144.71 203.153 147.009 205.605 148.747C208.774 151.016 212.573 152.233 216.471 152.228C216.724 152.228 216.967 152.328 217.146 152.507C217.324 152.686 217.426 152.929 217.426 153.182C217.426 153.436 217.324 153.678 217.146 153.858C216.967 154.037 216.724 154.137 216.471 154.137Z" fill="#181C61"/>
<path d="M215.4 139.156C214.241 139.156 213.014 138.994 212.284 138.058C211.553 137.123 211.528 135.81 212.164 133.475C212.738 131.458 213.43 129.477 214.236 127.541C214.302 127.385 214.409 127.249 214.546 127.148C214.681 127.046 214.842 126.983 215.011 126.965C215.18 126.946 215.351 126.973 215.505 127.042C215.66 127.112 215.793 127.221 215.893 127.36C217.136 129.152 218.092 131.126 218.728 133.213C219.43 135.724 219.435 137.189 218.728 138.12C217.983 139.123 216.695 139.147 215.658 139.166L215.4 139.156ZM215.296 130.024C214.9 131.093 214.402 132.53 214.006 133.977C213.477 135.929 213.596 136.636 213.787 136.884C213.979 137.132 214.356 137.266 215.626 137.242C216.18 137.242 217.009 137.218 217.196 136.97C217.382 136.722 217.555 136.13 216.875 133.714C216.494 132.427 215.964 131.188 215.296 130.024Z" fill="#181C61"/>
<path d="M216.145 149.594C215.323 149.585 214.511 149.409 213.758 149.078C213.529 148.97 213.352 148.775 213.267 148.536C213.181 148.298 213.194 148.035 213.302 147.806C213.41 147.576 213.607 147.4 213.845 147.314C214.083 147.229 214.346 147.241 214.574 147.35C214.666 147.393 216.628 148.276 217.989 146.977C218.077 146.884 218.185 146.81 218.303 146.76C218.422 146.709 218.549 146.683 218.678 146.684C218.807 146.684 218.934 146.71 219.053 146.761C219.172 146.812 219.279 146.886 219.367 146.979C219.457 147.072 219.526 147.183 219.572 147.303C219.617 147.424 219.638 147.552 219.631 147.681C219.625 147.81 219.594 147.936 219.538 148.052C219.481 148.168 219.403 148.272 219.306 148.357C218.887 148.762 218.391 149.079 217.849 149.291C217.306 149.504 216.728 149.606 216.145 149.594Z" fill="#181C61"/>
<path d="M204.711 125.947C205.185 126.56 205.524 127.264 205.714 128.015C205.903 128.765 205.935 129.547 205.809 130.31C205.041 134.153 202.865 131.489 202.773 129.098C202.649 128.109 203.084 124.634 204.711 125.947Z" fill="#181C61"/>
<path d="M226.018 124.438C226.53 125.07 226.899 125.804 227.1 126.59C227.303 127.377 227.332 128.198 227.189 128.998C227.063 129.819 226.358 131.714 225.216 130.726C224.466 129.901 224.033 128.837 223.994 127.723C223.87 126.725 224.376 123.121 226.018 124.438Z" fill="#181C61"/>
<path d="M201.546 120.728C201.393 120.73 201.242 120.692 201.108 120.619C200.995 120.561 200.897 120.482 200.817 120.385C200.736 120.289 200.675 120.178 200.638 120.058C200.599 119.939 200.586 119.813 200.598 119.688C200.607 119.563 200.644 119.441 200.702 119.33C202.515 115.845 205.758 115.754 207.218 116.193C207.461 116.266 207.666 116.432 207.786 116.656C207.907 116.879 207.933 117.141 207.86 117.384C207.788 117.627 207.62 117.832 207.398 117.952C207.175 118.072 206.912 118.099 206.669 118.026C206.382 117.945 203.89 117.334 202.372 120.213C202.295 120.365 202.175 120.493 202.031 120.584C201.886 120.675 201.718 120.724 201.546 120.728Z" fill="#181C61"/>
<path d="M225.216 117.039C224.976 117.041 224.745 116.952 224.567 116.791C222.367 114.757 220.494 115.764 220.418 115.807C220.198 115.931 219.939 115.963 219.696 115.896C219.451 115.829 219.245 115.668 219.119 115.449C218.995 115.233 218.96 114.976 219.023 114.734C219.085 114.492 219.24 114.284 219.454 114.155C219.583 114.084 222.586 112.365 225.86 115.382C225.954 115.467 226.028 115.569 226.081 115.683C226.134 115.797 226.165 115.92 226.169 116.046C226.174 116.171 226.155 116.297 226.111 116.415C226.07 116.533 226.004 116.641 225.918 116.733C225.828 116.83 225.72 116.907 225.599 116.959C225.479 117.012 225.348 117.039 225.216 117.039Z" fill="#181C61"/>
<path d="M238.723 133.042C238.375 133.04 238.031 132.977 237.706 132.855C237.469 132.766 237.277 132.586 237.171 132.355C237.066 132.124 237.058 131.861 237.147 131.624C237.237 131.386 237.417 131.194 237.648 131.089C237.879 130.985 238.142 130.976 238.379 131.065C238.895 131.261 239.425 130.994 239.95 130.282C241.128 128.692 241.539 125.795 240.732 124.744C240.684 124.66 240.615 124.59 240.531 124.539C240.447 124.488 240.352 124.458 240.256 124.453C239.382 124.453 237.926 125.771 237.166 126.711C237.008 126.909 236.777 127.035 236.525 127.062C236.273 127.09 236.02 127.016 235.823 126.857C235.625 126.698 235.498 126.467 235.471 126.215C235.445 125.963 235.518 125.71 235.677 125.513C236.078 125.012 238.174 122.505 240.285 122.543C240.674 122.548 241.059 122.644 241.405 122.824C241.752 123.004 242.051 123.263 242.28 123.579C243.712 125.465 243.052 129.342 241.516 131.419C240.7 132.483 239.726 133.042 238.723 133.042Z" fill="#181C61"/>
<path d="M238.76 131.776C239.341 131.776 239.811 131.306 239.811 130.726C239.811 130.146 239.341 129.676 238.76 129.676C238.18 129.676 237.71 130.146 237.71 130.726C237.71 131.306 238.18 131.776 238.76 131.776Z" fill="#181C61"/>
<path d="M238.76 132.731C238.364 132.731 237.976 132.613 237.647 132.393C237.317 132.173 237.06 131.86 236.909 131.493C236.757 131.127 236.717 130.724 236.794 130.335C236.871 129.946 237.063 129.588 237.343 129.308C237.623 129.028 237.981 128.837 238.369 128.759C238.758 128.682 239.161 128.722 239.528 128.873C239.895 129.025 240.207 129.282 240.428 129.612C240.649 129.942 240.766 130.329 240.766 130.726C240.766 131.258 240.555 131.768 240.178 132.144C239.802 132.52 239.293 132.731 238.76 132.731ZM238.76 130.63C238.736 130.63 238.712 130.64 238.692 130.658C238.675 130.676 238.665 130.701 238.665 130.726C238.665 130.831 238.857 130.831 238.857 130.726C238.857 130.701 238.845 130.676 238.828 130.658C238.81 130.64 238.786 130.63 238.76 130.63Z" fill="#181C61"/>
<path d="M204.894 157.221H204.869C204.744 157.218 204.62 157.19 204.506 157.14C204.391 157.089 204.288 157.016 204.201 156.925C204.114 156.834 204.047 156.727 204.002 156.61C203.957 156.493 203.936 156.368 203.939 156.243L204.097 149.502C204.1 149.376 204.127 149.253 204.177 149.138C204.229 149.023 204.301 148.92 204.393 148.833C204.483 148.747 204.591 148.679 204.707 148.634C204.824 148.589 204.95 148.567 205.075 148.571C205.199 148.574 205.323 148.602 205.438 148.652C205.554 148.703 205.657 148.776 205.744 148.867C205.829 148.958 205.897 149.065 205.942 149.182C205.987 149.299 206.009 149.424 206.006 149.549L205.843 156.29C205.837 156.539 205.734 156.775 205.557 156.948C205.38 157.122 205.141 157.22 204.894 157.221Z" fill="#181C61"/>
<path d="M231.581 157.222C231.384 157.221 231.191 157.16 231.032 157.047C230.871 156.933 230.748 156.772 230.682 156.587C229.652 153.684 229.57 151.813 229.436 148.681L229.385 147.507C229.373 147.253 229.462 147.006 229.634 146.819C229.805 146.632 230.043 146.52 230.296 146.509C230.549 146.497 230.797 146.587 230.983 146.758C231.172 146.929 231.283 147.167 231.294 147.421L231.347 148.6C231.481 151.741 231.547 153.317 232.482 155.947C232.566 156.186 232.553 156.448 232.444 156.676C232.334 156.905 232.139 157.08 231.9 157.165C231.798 157.202 231.69 157.221 231.581 157.222Z" fill="#181C61"/>
<path d="M140.5 399.295C130.169 399.379 120.156 395.724 112.31 389.002C106.511 384.085 101.825 377.993 98.5601 371.128C97.9491 369.829 97.0754 368.325 96.0633 366.578C89.4512 355.12 77.1341 333.866 89.2411 289.463C96.8798 261.529 113.823 234.465 126.713 216.678C141.336 196.498 156.436 180.604 162.591 176.895C171.341 171.615 178.908 167.729 187.386 165.914C187.51 165.885 187.639 165.881 187.763 165.902C187.889 165.922 188.009 165.969 188.116 166.037C188.223 166.104 188.317 166.193 188.389 166.298C188.462 166.402 188.513 166.52 188.539 166.644C188.566 166.768 188.568 166.895 188.544 167.02C188.521 167.144 188.473 167.264 188.402 167.37C188.333 167.476 188.243 167.566 188.137 167.637C188.03 167.708 187.913 167.756 187.787 167.78C179.566 169.553 172.167 173.372 163.579 178.527C152.789 185.035 105.144 238.419 91.0649 289.968C79.1678 333.604 91.2224 354.42 97.7009 365.624C98.7321 367.404 99.6105 368.966 100.269 370.317C102.399 374.847 114.338 397.386 140.486 397.386H140.749C141.002 397.386 141.245 397.486 141.424 397.666C141.603 397.845 141.704 398.088 141.704 398.34C141.704 398.593 141.603 398.836 141.424 399.015C141.245 399.195 141.002 399.295 140.749 399.295H140.5Z" fill="#181C61"/>
<path d="M211.744 187.426C211.525 187.426 211.313 187.35 211.144 187.212L186.643 167.227C186.461 167.079 186.34 166.868 186.303 166.634C186.267 166.402 186.319 166.164 186.446 165.968C186.446 165.929 188.938 162.115 191.698 158.328C197.489 150.356 198.788 150.322 199.489 150.303C201.952 150.236 204.989 150.427 205.117 150.432C205.372 150.448 205.608 150.564 205.776 150.754C205.943 150.944 206.029 151.193 206.013 151.447C205.998 151.7 205.882 151.936 205.692 152.104C205.501 152.272 205.253 152.358 204.998 152.342C204.971 152.342 201.92 152.151 199.537 152.213C198.201 152.537 192.881 159.627 188.533 166.272L211.219 184.829L217.956 160.758C217.45 160.443 215.65 160.071 213.602 159.641C212.38 159.388 210.862 159.073 209.086 158.687C201.762 157.025 199.255 154.108 199.151 153.984C199.001 153.789 198.932 153.544 198.959 153.299C198.986 153.055 199.106 152.83 199.294 152.672C199.482 152.514 199.724 152.434 199.97 152.45C200.215 152.466 200.445 152.576 200.611 152.757C200.654 152.805 202.926 155.33 209.506 156.825C211.268 157.226 212.776 157.541 213.988 157.779C218.286 158.677 219.918 159.011 219.918 160.711C219.918 160.796 219.907 160.881 219.884 160.964L212.667 186.743C212.61 186.944 212.49 187.122 212.322 187.247C212.156 187.373 211.953 187.442 211.744 187.44V187.426Z" fill="#181C61"/>
<path d="M227.862 186.01C227.765 186.01 227.669 185.995 227.575 185.966C227.422 185.92 227.282 185.834 227.171 185.718C227.058 185.604 226.978 185.462 226.936 185.308C220.805 161.242 221.169 160.21 221.288 159.871C221.565 159.088 222.515 158.749 224.816 157.933C227.913 156.83 233.104 154.988 234.049 152.152C234.083 152.026 234.142 151.91 234.223 151.808C234.303 151.706 234.405 151.622 234.519 151.561C234.633 151.5 234.759 151.462 234.888 151.451C235.018 151.44 235.149 151.456 235.271 151.497C235.395 151.538 235.508 151.603 235.604 151.689C235.703 151.776 235.78 151.881 235.835 151.999C235.889 152.116 235.92 152.244 235.925 152.374C235.928 152.503 235.905 152.632 235.859 152.753C234.617 156.477 229.103 158.434 225.455 159.733C224.611 160.034 223.599 160.392 223.14 160.626C223.373 162.947 226.3 175.001 228.391 183.34L250.305 164.387C245.11 159.098 237.329 151.278 236.369 150.543C235.762 150.385 233.328 151.183 231.117 152.266C231.005 152.321 230.882 152.353 230.757 152.361C230.631 152.368 230.505 152.351 230.388 152.31C230.269 152.269 230.159 152.205 230.066 152.122C229.973 152.038 229.895 151.938 229.84 151.825C229.786 151.712 229.754 151.589 229.746 151.464C229.739 151.339 229.755 151.213 229.797 151.095C229.837 150.976 229.902 150.867 229.985 150.773C230.068 150.679 230.169 150.603 230.282 150.548C232.339 149.545 236.012 147.998 237.414 148.934C238.599 149.727 250.104 161.423 252.395 163.763C252.487 163.855 252.558 163.966 252.604 164.088C252.651 164.209 252.674 164.339 252.667 164.47C252.662 164.598 252.63 164.727 252.574 164.845C252.517 164.962 252.437 165.067 252.339 165.152L228.467 185.78C228.298 185.924 228.084 186.007 227.862 186.01Z" fill="#181C61"/>
<path d="M216.69 168.957C216.437 168.962 216.193 168.867 216.009 168.691C215.827 168.516 215.721 168.274 215.716 168.021C215.711 167.767 215.806 167.522 215.982 167.34C216.157 167.157 216.399 167.052 216.651 167.047L223.618 166.79C223.869 166.78 224.115 166.872 224.301 167.043C224.486 167.215 224.595 167.453 224.605 167.706C224.614 167.959 224.523 168.203 224.352 168.388C224.18 168.574 223.941 168.685 223.689 168.694L216.724 168.952L216.69 168.957Z" fill="#181C61"/>
<path d="M220.443 182.879C216.379 182.879 213.581 178.897 213.467 178.73C213.323 178.52 213.267 178.264 213.312 178.015C213.357 177.765 213.5 177.545 213.708 177.4C213.916 177.255 214.173 177.2 214.423 177.245C214.672 177.29 214.893 177.432 215.038 177.641C215.077 177.698 217.397 180.982 220.443 180.982C223.397 180.982 225.112 177.559 225.129 177.527C225.25 177.318 225.447 177.162 225.677 177.091C225.907 177.02 226.157 177.039 226.374 177.146C226.59 177.25 226.76 177.434 226.847 177.659C226.934 177.883 226.933 178.132 226.844 178.358C226.744 178.529 224.59 182.879 220.443 182.879Z" fill="#181C61"/>
<path d="M265.797 268.24C255.671 268.24 248.61 262.223 248.61 253.616C248.61 245.291 248.486 229.778 248.481 229.125C248.481 228.872 248.581 228.629 248.761 228.45C248.94 228.271 249.183 228.17 249.436 228.17H279.736C279.99 228.17 280.233 228.271 280.412 228.45C280.591 228.629 280.692 228.872 280.692 229.125V253.368C280.607 255.868 279.899 258.308 278.633 260.467C275.822 265.403 271.167 268.24 265.797 268.24ZM250.386 230.046C250.386 233.66 250.505 246.34 250.505 253.592C250.505 261.197 256.648 266.306 265.782 266.306C272.375 266.306 275.807 261.531 276.944 259.492C278.049 257.622 278.67 255.506 278.754 253.334V230.07L250.386 230.046Z" fill="#181C61"/>
<path d="M223.006 267.899C222.087 267.903 221.181 267.669 220.377 267.222C219.574 266.772 218.899 266.125 218.419 265.341L207.185 247.2C206.436 245.984 206.135 244.545 206.336 243.131L215.23 180.505C215.265 180.253 215.399 180.024 215.603 179.87C215.808 179.715 216.066 179.649 216.318 179.684C216.571 179.72 216.8 179.855 216.954 180.058C217.109 180.262 217.175 180.52 217.139 180.773L208.226 243.394C208.088 244.366 208.297 245.353 208.814 246.187L220.042 264.329C220.355 264.834 220.791 265.251 221.309 265.541C221.828 265.831 222.412 265.982 223.006 265.982C223.6 265.982 224.185 265.831 224.703 265.541C225.223 265.251 225.66 264.834 225.972 264.329L237.091 246.354C237.662 245.429 237.85 244.318 237.615 243.255L223.771 179.918C223.716 179.67 223.763 179.412 223.9 179.198C224.037 178.986 224.254 178.836 224.5 178.781C224.748 178.728 225.007 178.775 225.22 178.912C225.434 179.048 225.584 179.264 225.637 179.512L239.481 242.845C239.826 244.393 239.549 246.015 238.713 247.362L227.604 265.351C227.121 266.135 226.445 266.781 225.639 267.227C224.834 267.674 223.927 267.906 223.006 267.899Z" fill="#181C61"/>
<path d="M153.605 310.321C152.859 310.313 152.133 310.082 151.519 309.658C150.871 309.23 150.371 308.612 150.087 307.887C149.928 307.531 149.861 307.142 149.894 306.754C149.926 306.366 150.057 305.992 150.273 305.669C150.489 305.343 150.783 305.079 151.129 304.901C151.474 304.72 151.86 304.632 152.249 304.641C153.031 304.63 153.796 304.862 154.441 305.305C155.963 306.317 156.522 308.069 155.71 309.291C155.475 309.626 155.158 309.896 154.79 310.077C154.422 310.257 154.014 310.341 153.605 310.321ZM152.34 306.551H152.297C152.213 306.548 152.13 306.56 152.052 306.591C151.974 306.622 151.903 306.668 151.844 306.728C151.81 306.802 151.793 306.884 151.793 306.966C151.793 307.048 151.81 307.129 151.844 307.204C151.994 307.555 152.247 307.853 152.569 308.059C153.247 308.509 153.934 308.455 154.092 308.222C154.25 307.987 154.03 307.333 153.352 306.881C153.05 306.684 152.7 306.578 152.34 306.57V306.551Z" fill="#181C61"/>
<path d="M201.641 112.67C201.448 112.671 201.258 112.613 201.097 112.503C198.539 110.722 198.534 102.912 200.458 99.1354C200.513 99.02 200.59 98.9166 200.685 98.8316C200.78 98.7468 200.893 98.6817 201.013 98.6407C201.134 98.5995 201.261 98.5831 201.39 98.5924C201.517 98.6016 201.641 98.6363 201.756 98.6945C201.868 98.7527 201.97 98.8331 202.052 98.931C202.134 99.0289 202.195 99.1422 202.234 99.2644C202.271 99.3864 202.284 99.5149 202.271 99.6419C202.256 99.7691 202.219 99.8923 202.156 100.004C200.39 103.451 200.888 110.03 202.185 110.913C202.353 111.029 202.477 111.195 202.543 111.388C202.609 111.58 202.61 111.788 202.551 111.981C202.49 112.175 202.369 112.344 202.205 112.465C202.042 112.585 201.844 112.65 201.641 112.651V112.67Z" fill="white"/>
<path d="M198.133 114.46C197.938 114.46 197.748 114.4 197.589 114.289C195.164 112.603 193.77 105.853 195.733 102.024C195.787 101.909 195.865 101.805 195.96 101.72C196.055 101.635 196.166 101.57 196.288 101.529C196.409 101.488 196.536 101.472 196.663 101.481C196.79 101.49 196.916 101.525 197.029 101.583C197.143 101.641 197.244 101.722 197.327 101.82C197.409 101.917 197.47 102.031 197.507 102.153C197.545 102.275 197.557 102.404 197.544 102.531C197.531 102.658 197.492 102.781 197.431 102.893C195.784 106.115 197.264 111.735 198.682 112.723C198.85 112.839 198.974 113.006 199.04 113.198C199.106 113.391 199.107 113.599 199.046 113.793C198.985 113.987 198.864 114.157 198.7 114.277C198.536 114.397 198.336 114.461 198.133 114.46Z" fill="white"/>
<path d="M140.767 399.296C140.52 399.296 140.282 399.201 140.104 399.029C139.421 398.37 123.471 382.544 125.261 348.848C127.047 315.349 138.208 296.658 138.323 296.472C138.42 296.312 138.563 296.183 138.733 296.104C138.903 296.024 139.092 295.997 139.278 296.024C139.34 296.024 145.446 296.926 151.638 298.038C164.527 300.353 165.196 301.318 165.564 301.857C166.719 303.509 166.223 305.046 164.576 310.145C163.821 312.47 162.795 315.66 161.52 320.042C159.448 327.203 158.852 340.948 160.036 354.291C161.468 370.68 165.321 384.076 170.821 392.006C170.892 392.109 170.942 392.226 170.969 392.349C170.995 392.471 170.998 392.598 170.976 392.721C170.953 392.845 170.906 392.962 170.839 393.068C170.771 393.173 170.682 393.265 170.579 393.336C170.476 393.408 170.36 393.458 170.237 393.484C170.114 393.511 169.989 393.513 169.865 393.49C169.741 393.468 169.623 393.421 169.517 393.353C169.412 393.286 169.32 393.197 169.25 393.094C156.656 374.953 155.495 333.939 159.701 319.512C160.981 315.096 162.017 311.873 162.771 309.558C164.246 304.993 164.59 303.829 164.041 302.994C162.732 301.939 150.779 299.651 139.66 298.028C137.86 301.293 128.775 319.134 127.185 348.967C125.567 379.327 138.991 395.047 141.154 397.372C152.85 396.417 170.576 394.775 172.687 394.031C172.811 393.992 172.924 393.925 173.017 393.836C173.11 393.746 173.183 393.637 173.226 393.514C173.751 392.241 172.796 389.385 172.07 387.886C172.017 387.773 171.985 387.651 171.977 387.525C171.97 387.4 171.988 387.274 172.03 387.155C172.07 387.037 172.135 386.928 172.218 386.834C172.302 386.739 172.404 386.664 172.518 386.609C172.631 386.554 172.753 386.522 172.879 386.516C173.004 386.509 173.13 386.527 173.249 386.567C173.366 386.609 173.476 386.673 173.569 386.757C173.664 386.841 173.74 386.942 173.795 387.055C174.023 387.533 176.01 391.772 174.992 394.24C174.844 394.612 174.619 394.946 174.329 395.221C174.041 395.496 173.695 395.706 173.316 395.834C170.267 396.905 143.856 399.062 140.853 399.305L140.767 399.296Z" fill="#181C61"/>
<path d="M173.408 309.224C173.354 309.228 173.297 309.228 173.241 309.224C173.119 309.203 172.999 309.156 172.895 309.088C172.788 309.021 172.697 308.934 172.626 308.831C172.553 308.728 172.502 308.612 172.476 308.489C172.449 308.367 172.446 308.24 172.468 308.116C172.816 306.136 173.284 300.597 171.28 298.86C168.744 296.659 146.077 295.321 142.363 297.867C142.26 297.947 142.142 298.007 142.016 298.041C141.889 298.073 141.757 298.081 141.628 298.06C141.499 298.041 141.375 297.995 141.265 297.926C141.154 297.857 141.059 297.765 140.985 297.657C140.911 297.549 140.86 297.427 140.834 297.3C140.81 297.171 140.811 297.039 140.839 296.912C140.867 296.785 140.921 296.664 140.997 296.558C141.074 296.451 141.171 296.363 141.284 296.295C145.757 293.222 169.379 294.682 172.529 297.413C175.682 300.143 174.497 307.615 174.349 308.451C174.307 308.67 174.189 308.866 174.019 309.006C173.846 309.148 173.631 309.225 173.408 309.224Z" fill="#181C61"/>
<path d="M172.123 308.178C172.123 308.178 166.82 304.517 165.488 303.404L164.733 309.162L172.123 308.178Z" fill="#181C61"/>
<path d="M164.733 310.141C164.597 310.141 164.461 310.114 164.337 310.057C164.212 310.002 164.101 309.92 164.01 309.819C163.92 309.716 163.853 309.595 163.812 309.465C163.772 309.334 163.761 309.197 163.779 309.062L164.537 303.303C164.559 303.136 164.625 302.975 164.73 302.841C164.835 302.706 164.973 302.603 165.133 302.54C165.29 302.477 165.463 302.458 165.63 302.484C165.799 302.509 165.957 302.58 166.089 302.688C167.374 303.743 172.606 307.357 172.658 307.391C172.817 307.5 172.938 307.655 173.007 307.834C173.076 308.014 173.089 308.211 173.046 308.397C173.001 308.586 172.901 308.755 172.759 308.883C172.616 309.014 172.439 309.098 172.247 309.123L164.857 310.131L164.733 310.141ZM166.218 305.18L165.841 308.045L169.565 307.539C168.506 306.818 167.221 305.91 166.218 305.18Z" fill="#181C61"/>
<path d="M167.588 388.206L172.181 387.475C172.181 387.475 170.5 392.124 169.426 391.585C168.351 391.046 167.588 388.206 167.588 388.206Z" fill="#181C61"/>
<path d="M169.607 392.594C169.398 392.594 169.19 392.546 169.002 392.451C167.651 391.778 166.872 389.233 166.667 388.47C166.632 388.341 166.624 388.206 166.645 388.074C166.664 387.94 166.712 387.814 166.785 387.702C166.857 387.589 166.954 387.492 167.065 387.42C167.178 387.346 167.303 387.298 167.435 387.277L172.033 386.541C172.196 386.515 172.363 386.533 172.518 386.591C172.674 386.65 172.811 386.747 172.916 386.876C173.025 387.004 173.099 387.162 173.127 387.33C173.156 387.499 173.139 387.671 173.078 387.83C172.524 389.362 171.407 392.007 170.146 392.509C169.974 392.572 169.791 392.601 169.607 392.594ZM168.844 388.985C169.037 389.529 169.298 390.046 169.622 390.522C170.032 389.952 170.378 389.339 170.654 388.693L168.844 388.985Z" fill="#181C61"/>
<path d="M376.642 263.445C376.397 263.445 376.154 263.4 375.925 263.316C375.503 263.144 375.123 262.884 374.808 262.556C374.494 262.226 374.251 261.835 374.096 261.406C373.452 259.784 373.853 258.066 375.027 257.42C375.281 257.282 375.563 257.198 375.853 257.177C376.141 257.156 376.432 257.2 376.703 257.301C377.125 257.473 377.505 257.732 377.819 258.063C378.132 258.391 378.374 258.782 378.527 259.21C379.171 260.833 378.775 262.553 377.572 263.202C377.287 263.359 376.967 263.443 376.642 263.445ZM375.872 260.677C375.986 261.038 376.236 261.34 376.569 261.521C376.642 261.545 376.664 261.521 376.674 261.521C376.875 261.411 377.065 260.695 376.751 259.912C376.64 259.55 376.392 259.247 376.059 259.067C375.986 259.067 375.964 259.067 375.954 259.067C375.748 259.177 375.561 259.893 375.872 260.677Z" fill="#181C61"/>
<path d="M347.433 282.88C344.034 282.88 340.425 282.731 336.606 282.403C307.188 279.833 295.873 261.983 295.396 261.215C295.33 261.111 295.285 260.995 295.264 260.874C295.243 260.753 295.248 260.628 295.277 260.509C295.535 259.335 301.645 231.788 303.034 228.87C304.424 225.953 308.51 226.832 310.706 227.811C310.825 227.859 310.933 227.93 311.025 228.022C311.115 228.112 311.186 228.22 311.234 228.339C311.282 228.458 311.305 228.585 311.303 228.714C311.302 228.841 311.273 228.969 311.221 229.086C311.168 229.202 311.092 229.308 310.999 229.395C310.905 229.482 310.794 229.55 310.674 229.593C310.553 229.637 310.424 229.656 310.297 229.65C310.168 229.643 310.043 229.609 309.928 229.553C309.89 229.553 305.675 227.772 304.759 229.692C303.698 231.917 299.029 252.322 297.229 260.523C298.876 262.911 310.453 278.186 336.764 280.489C362.643 282.736 379.319 276.063 382.399 274.697C382.623 263.492 382.399 251.348 381.707 249.871C381.158 249.327 380.274 249.456 376.064 250.349C373.934 250.799 371.021 251.409 367.022 252.116C364.953 252.442 362.862 252.594 360.767 252.57C344.98 252.57 316.846 246.038 304.82 233.168C304.657 232.981 304.573 232.739 304.586 232.491C304.599 232.245 304.707 232.012 304.889 231.844C305.069 231.675 305.308 231.582 305.555 231.587C305.802 231.59 306.038 231.69 306.214 231.863C312.219 238.3 323.172 243.8 337.05 247.318C348.349 250.182 360.262 251.362 366.692 250.235C370.659 249.538 373.557 248.926 375.673 248.482C380.393 247.485 381.821 247.184 383.143 248.62C383.568 249.098 384.28 249.849 384.379 262.867C384.428 269.13 384.299 275.28 384.299 275.346C384.296 275.52 384.244 275.691 384.151 275.837C384.057 275.986 383.925 276.105 383.769 276.182C383.138 276.493 370.02 282.88 347.433 282.88Z" fill="#181C61"/>
<path d="M383.648 273.628C383.468 273.63 383.289 273.578 383.136 273.481C382.983 273.385 382.861 273.246 382.784 273.082C382.705 272.92 382.676 272.736 382.698 272.557C382.721 272.377 382.793 272.208 382.908 272.068C385.662 268.726 387.854 246.039 386.327 243.241C385.434 241.608 377.223 240.678 370.128 240.741C369.875 240.741 369.632 240.639 369.453 240.46C369.274 240.282 369.173 240.039 369.173 239.784C369.173 239.531 369.274 239.288 369.453 239.11C369.632 238.931 369.875 238.829 370.128 238.829C373.852 238.797 386.17 238.936 388.021 242.325C389.874 245.714 387.702 269.255 384.408 273.28C384.315 273.391 384.199 273.481 384.069 273.541C383.937 273.602 383.793 273.631 383.648 273.628Z" fill="#181C61"/>
<path d="M370.009 241.055C370.009 241.055 380.904 246.979 381.649 248.437L371.046 249.586L370.009 241.055Z" fill="#181C61"/>
<path d="M371.045 250.54C370.81 250.542 370.583 250.458 370.408 250.304C370.231 250.148 370.118 249.933 370.091 249.7L369.063 241.165C369.043 240.99 369.07 240.814 369.142 240.655C369.215 240.494 369.329 240.359 369.474 240.259C369.619 240.161 369.79 240.104 369.963 240.095C370.139 240.087 370.313 240.127 370.467 240.209C373.81 242.033 381.705 246.445 382.499 247.997C382.568 248.135 382.605 248.288 382.604 248.443C382.602 248.597 382.562 248.75 382.488 248.885C382.414 249.022 382.309 249.138 382.18 249.225C382.051 249.31 381.903 249.365 381.749 249.381L371.15 250.531L371.045 250.54ZM371.184 242.793L371.881 248.521L379.376 247.71C377.571 246.483 374.359 244.564 371.184 242.793Z" fill="#181C61"/>
<path d="M308.872 235.493L310.196 231.043C310.196 231.043 305.937 232.109 306.243 233.239C306.548 234.371 308.872 235.493 308.872 235.493Z" fill="#181C61"/>
<path d="M308.872 236.448C308.729 236.448 308.587 236.416 308.457 236.353C307.817 236.042 305.699 234.92 305.306 233.489C305.256 233.299 305.245 233.101 305.274 232.907C305.303 232.714 305.37 232.527 305.473 232.362C306.17 231.172 308.816 230.394 309.947 230.117C310.11 230.075 310.281 230.079 310.443 230.125C310.604 230.17 310.751 230.259 310.868 230.38C310.989 230.504 311.074 230.658 311.115 230.826C311.155 230.993 311.148 231.17 311.097 231.334L309.79 235.784C309.748 235.92 309.678 236.044 309.584 236.148C309.489 236.255 309.371 236.337 309.241 236.39C309.123 236.433 308.997 236.453 308.872 236.448ZM307.263 233.197C307.565 233.534 307.912 233.825 308.296 234.065L308.772 232.481C308.242 232.658 307.735 232.898 307.263 233.197Z" fill="#181C61"/>
<path d="M308.391 369.992C308.355 370.139 308.317 370.298 308.277 370.47C308.046 371.357 307.65 372.542 307.058 372.948C306.671 373.196 306.103 372.7 305.583 371.993C306.501 371.617 307.373 371.137 308.18 370.561C308.233 370.38 308.314 370.189 308.391 369.992Z" fill="#181C61"/>
<path d="M306.81 374.007C306.18 374.007 305.502 373.531 304.791 372.575C304.707 372.46 304.651 372.328 304.625 372.188C304.599 372.048 304.606 371.905 304.643 371.766C304.68 371.629 304.747 371.502 304.839 371.394C304.932 371.287 305.047 371.201 305.177 371.143C305.947 370.82 306.683 370.42 307.373 369.95C307.417 369.844 307.46 369.744 307.497 369.644C307.583 369.416 307.752 369.229 307.969 369.123C308.186 369.015 308.437 368.994 308.669 369.065C308.903 369.134 309.099 369.292 309.22 369.503C309.341 369.712 309.378 369.962 309.321 370.198C309.288 370.351 309.246 370.522 309.202 370.704C308.792 372.29 308.296 373.249 307.626 373.721L307.555 373.769H307.531C307.318 373.917 307.069 373.999 306.81 374.007Z" fill="#181C61"/>
<path d="M137.034 301.084H136.957L122.492 299.923C122.239 299.904 122.004 299.785 121.839 299.592C121.673 299.398 121.592 299.149 121.611 298.894C121.631 298.642 121.75 298.407 121.943 298.241C122.136 298.077 122.387 297.994 122.64 298.014L134.905 298.968L127.027 289.12C126.947 289.022 126.887 288.909 126.851 288.788C126.815 288.666 126.804 288.539 126.817 288.413C126.83 288.288 126.869 288.165 126.93 288.056C126.991 287.945 127.073 287.847 127.172 287.768C127.271 287.689 127.385 287.631 127.506 287.597C127.628 287.562 127.755 287.552 127.881 287.568C128.007 287.583 128.128 287.623 128.238 287.686C128.348 287.747 128.444 287.831 128.522 287.932L137.779 299.503C137.89 299.645 137.959 299.812 137.979 299.991C137.998 300.168 137.967 300.348 137.89 300.509C137.812 300.67 137.691 300.807 137.539 300.902C137.388 300.999 137.213 301.05 137.034 301.05V301.084Z" fill="#181C61"/>
<path d="M167.588 389.161C167.35 389.161 167.119 389.074 166.944 388.913C166.767 388.754 166.656 388.533 166.633 388.297C166.609 388.045 166.686 387.794 166.846 387.599C167.007 387.405 167.237 387.281 167.488 387.256C169.398 387.07 213.711 382.768 220.892 382.481C222.46 382.47 224.027 382.607 225.569 382.892C232.191 383.885 242.202 385.389 270.264 371.588C270.449 371.496 270.659 371.469 270.861 371.506C271.058 371.544 290.383 375.062 302.026 372.164C303.1 371.907 304.151 371.561 305.167 371.129C306.013 370.773 306.813 370.324 307.555 369.788L307.664 369.706C309.914 368.002 310.749 365.734 310.224 362.775C310.166 362.435 310.096 362.102 310.018 361.781C310.017 361.762 310.017 361.743 310.018 361.723C309.595 359.679 308.764 357.74 307.574 356.024C306.634 354.71 305.449 353.591 304.084 352.73C298.832 349.359 290.808 349.206 282.329 349.045C278.467 348.972 274.476 348.897 270.58 348.513C270.327 348.489 270.093 348.365 269.932 348.169C269.77 347.972 269.693 347.72 269.718 347.467C269.742 347.213 269.866 346.981 270.063 346.818C270.259 346.657 270.512 346.58 270.766 346.604C274.585 346.977 278.543 347.053 282.366 347.126C291.123 347.291 299.391 347.449 305.116 351.112C306.682 352.107 308.043 353.393 309.126 354.902C310.472 356.839 311.412 359.027 311.889 361.337V361.371C311.971 361.719 312.047 362.073 312.11 362.435C312.758 366.111 311.656 369.067 308.83 371.214C308.777 371.253 308.721 371.296 308.658 371.334C307.803 371.953 306.879 372.47 305.903 372.876C304.791 373.344 303.643 373.723 302.471 374.008C291.109 376.833 273.463 373.903 270.808 373.43C242.422 387.347 232.106 385.799 225.265 384.774C223.846 384.511 222.408 384.379 220.968 384.378C213.845 384.668 168.137 389.098 167.675 389.151L167.588 389.161Z" fill="#181C61"/>
<path d="M305.422 364.732C294.756 364.732 294.632 352.907 294.632 352.795C294.63 352.565 294.711 352.341 294.86 352.166C295.012 351.99 295.22 351.875 295.448 351.841L303.564 350.682C303.699 350.662 303.838 350.672 303.97 350.711C306.902 351.573 308.697 353.072 309.302 355.169C310.519 359.351 306.333 364.201 306.156 364.407C306.064 364.511 305.952 364.594 305.825 364.65C305.697 364.706 305.561 364.734 305.422 364.732ZM296.585 353.609C296.799 355.995 298.016 362.546 304.978 362.818C305.813 361.747 308.233 358.358 307.456 355.698C307.05 354.309 305.76 353.274 303.612 352.601L296.585 353.609Z" fill="#181C61"/>
<path d="M302.514 337.539C302.335 337.539 302.162 337.491 302.012 337.396C301.86 337.302 301.738 337.169 301.659 337.009C299.578 332.842 286.506 324.821 277.96 322.463C276.476 322.052 274.537 321.423 272.294 320.692C261.276 317.116 242.838 311.143 222.71 312.099C198.334 313.244 164.977 310.188 164.643 310.156C164.389 310.132 164.156 310.009 163.993 309.813C163.832 309.618 163.753 309.365 163.777 309.113C163.8 308.858 163.924 308.625 164.119 308.462C164.315 308.301 164.566 308.222 164.819 308.246C165.154 308.274 198.381 311.325 222.62 310.156C243.1 309.201 262.473 315.483 272.88 318.863C275.106 319.584 277.02 320.21 278.467 320.606C286.778 322.897 300.877 331.157 303.369 336.146C303.482 336.372 303.499 336.632 303.421 336.872C303.34 337.112 303.169 337.312 302.944 337.425C302.81 337.495 302.664 337.534 302.514 337.539Z" fill="#181C61"/>
<path d="M309.459 355.475C309.316 355.475 309.174 355.445 309.044 355.385C308.931 355.331 308.83 355.255 308.746 355.161C308.663 355.068 308.598 354.959 308.556 354.841C308.514 354.722 308.497 354.596 308.503 354.471C308.51 354.345 308.542 354.223 308.597 354.11C310.239 350.678 310.105 347.464 308.181 344.284C300.427 331.457 266.799 324.86 266.46 324.792C266.337 324.768 266.22 324.721 266.115 324.652C266.01 324.583 265.92 324.493 265.849 324.39C265.78 324.285 265.73 324.169 265.704 324.045C265.68 323.923 265.679 323.795 265.703 323.673C265.727 323.549 265.775 323.432 265.845 323.327C265.914 323.222 266.002 323.132 266.107 323.063C266.21 322.992 266.328 322.944 266.45 322.918C266.572 322.892 266.699 322.892 266.823 322.916C268.255 323.188 301.625 329.748 309.818 343.297C312.066 347.02 312.234 350.935 310.295 354.936C310.219 355.094 310.1 355.227 309.954 355.322C309.806 355.417 309.635 355.471 309.459 355.475Z" fill="#181C61"/>
<path d="M305.053 347.454C301.081 347.454 295.839 345.76 294.761 344.031C293.242 341.606 293.906 337.734 294.039 337.061C294.083 335.681 294.994 334.775 296.47 334.622C300.207 334.231 308.974 339.029 309.933 343.596C310.257 345.139 309.574 346.375 308.056 346.987C307.093 347.327 306.074 347.486 305.053 347.454ZM295.926 337.362C295.71 338.383 295.368 341.4 296.379 343.02C297.134 344.222 304.429 346.39 307.359 345.216C308.114 344.915 308.194 344.524 308.085 343.989C307.402 340.751 299.835 336.187 296.685 336.517C295.968 336.593 295.968 336.884 295.968 337.161C295.962 337.23 295.947 337.296 295.926 337.362Z" fill="#181C61"/>
<path d="M149.179 205.617C149.011 205.615 148.846 205.569 148.702 205.483L141.24 201.062C141.049 200.924 140.916 200.719 140.867 200.488C140.819 200.256 140.857 200.016 140.976 199.811C141.095 199.607 141.285 199.454 141.51 199.382C141.735 199.309 141.979 199.324 142.195 199.42L149.647 203.836C149.826 203.943 149.966 204.105 150.044 204.299C150.123 204.492 150.136 204.704 150.082 204.905C150.028 205.107 149.909 205.285 149.745 205.413C149.58 205.54 149.378 205.611 149.17 205.612L149.179 205.617Z" fill="#181C61"/>
<path d="M292.679 191.729C292.54 191.729 292.403 191.7 292.278 191.644C292.164 191.592 292.061 191.518 291.974 191.426C291.888 191.335 291.821 191.228 291.777 191.111C291.732 190.993 291.711 190.868 291.716 190.742C291.719 190.616 291.748 190.492 291.8 190.378L293.915 185.786C294.022 185.555 294.215 185.376 294.451 185.287C294.69 185.2 294.952 185.21 295.182 185.315C295.413 185.421 295.593 185.614 295.68 185.852C295.768 186.089 295.759 186.353 295.652 186.583L293.548 191.165C293.473 191.333 293.35 191.476 293.196 191.576C293.043 191.676 292.862 191.729 292.679 191.729Z" fill="#181C61"/>
<path d="M441.005 354.424H365.575C360.399 354.413 355.438 352.351 351.78 348.691C348.121 345.03 346.06 340.07 346.049 334.895V329.4C346.06 324.224 348.121 319.263 351.78 315.604C355.438 311.943 360.399 309.88 365.575 309.869H441.005V354.424Z" fill="#FB9A09"/>
<path d="M441.005 355.38H365.575C360.146 355.367 354.942 353.205 351.104 349.365C347.266 345.525 345.105 340.324 345.094 334.895V329.4C345.105 323.971 347.266 318.767 351.104 314.927C354.942 311.089 360.146 308.925 365.575 308.914H441.005C441.257 308.914 441.501 309.014 441.679 309.193C441.858 309.373 441.959 309.614 441.959 309.869C441.959 310.122 441.858 310.365 441.679 310.543C441.501 310.722 441.257 310.824 441.005 310.824H365.575C360.651 310.836 355.935 312.797 352.455 316.278C348.974 319.759 347.014 324.476 347.003 329.4V334.895C347.014 339.816 348.974 344.534 352.455 348.015C355.935 351.495 360.651 353.458 365.575 353.469H441.005C441.257 353.469 441.501 353.571 441.679 353.749C441.858 353.928 441.959 354.171 441.959 354.424C441.959 354.678 441.858 354.921 441.679 355.1C441.501 355.279 441.257 355.38 441.005 355.38Z" fill="#181C61"/>
<path d="M424.11 391.743H340.969C337.71 391.733 334.589 390.434 332.286 388.13C329.982 385.826 328.685 382.703 328.677 379.446V366.722C328.686 363.465 329.984 360.345 332.288 358.041C334.59 355.737 337.712 354.439 340.969 354.43H424.11V391.743Z" fill="#FB9A09"/>
<path d="M424.109 392.697H340.969C337.456 392.693 334.089 391.295 331.605 388.811C329.121 386.325 327.725 382.959 327.72 379.446V366.722C327.725 363.21 329.123 359.842 331.605 357.358C334.089 354.875 337.456 353.478 340.969 353.475H424.109C424.364 353.475 424.605 353.574 424.785 353.753C424.964 353.933 425.064 354.175 425.064 354.429C425.064 354.682 424.964 354.925 424.785 355.104C424.605 355.283 424.364 355.384 424.109 355.384H340.969C337.963 355.386 335.08 356.582 332.954 358.707C330.829 360.834 329.633 363.716 329.631 366.722V379.45C329.633 382.456 330.829 385.34 332.954 387.467C335.08 389.593 337.963 390.79 340.969 390.793H424.109C424.364 390.793 424.605 390.894 424.785 391.073C424.964 391.252 425.064 391.495 425.064 391.748C425.064 392 424.964 392.243 424.785 392.424C424.605 392.602 424.364 392.702 424.109 392.702V392.697Z" fill="#181C61"/>
<path d="M354.116 351.326C353.941 351.326 353.767 351.276 353.617 351.184C353.467 351.092 353.347 350.959 353.266 350.803C353.187 350.645 353.152 350.469 353.166 350.294C353.181 350.118 353.244 349.949 353.347 349.808C365.565 333.146 355.114 312.832 355.008 312.628C354.947 312.517 354.908 312.393 354.894 312.267C354.881 312.14 354.892 312.013 354.928 311.891C354.965 311.768 355.026 311.655 355.106 311.557C355.187 311.459 355.287 311.377 355.399 311.319C355.512 311.259 355.636 311.222 355.762 311.213C355.889 311.201 356.016 311.216 356.138 311.255C356.259 311.295 356.37 311.358 356.467 311.441C356.563 311.523 356.642 311.625 356.699 311.739C356.808 311.95 367.822 333.299 354.889 350.935C354.8 351.055 354.684 351.155 354.549 351.223C354.416 351.29 354.266 351.326 354.116 351.326Z" fill="#181C61"/>
<path d="M331.564 388.359C331.396 388.356 331.23 388.308 331.087 388.221C330.979 388.155 330.886 388.07 330.812 387.968C330.738 387.867 330.685 387.752 330.656 387.63C330.625 387.509 330.62 387.382 330.639 387.258C330.659 387.134 330.702 387.015 330.767 386.907C338.511 374.18 332.496 358.983 332.433 358.832C332.351 358.6 332.361 358.344 332.46 358.12C332.56 357.895 332.744 357.718 332.971 357.625C333.199 357.533 333.454 357.531 333.682 357.621C333.913 357.711 334.098 357.887 334.199 358.111C334.466 358.769 340.654 374.343 332.394 387.901C332.309 388.042 332.187 388.16 332.04 388.24C331.895 388.321 331.731 388.361 331.564 388.359Z" fill="#181C61"/>
<path d="M436.875 318.925H358.183C357.93 318.925 357.687 318.824 357.509 318.645C357.33 318.466 357.229 318.223 357.229 317.97C357.229 317.716 357.33 317.474 357.509 317.294C357.687 317.115 357.93 317.016 358.183 317.016H436.875C437.128 317.016 437.371 317.115 437.55 317.294C437.73 317.474 437.83 317.716 437.83 317.97C437.83 318.223 437.73 318.466 437.55 318.645C437.371 318.824 437.128 318.925 436.875 318.925Z" fill="#181C61"/>
<path d="M439.467 325.579H360.801C360.547 325.579 360.304 325.48 360.125 325.301C359.946 325.121 359.845 324.879 359.845 324.625C359.845 324.372 359.946 324.129 360.125 323.95C360.304 323.771 360.547 323.67 360.801 323.67H439.467C439.722 323.67 439.963 323.771 440.143 323.95C440.322 324.129 440.422 324.372 440.422 324.625C440.422 324.879 440.322 325.121 440.143 325.301C439.963 325.48 439.722 325.579 439.467 325.579Z" fill="#181C61"/>
<path d="M439.467 334.259H360.801C360.547 334.259 360.304 334.159 360.125 333.981C359.946 333.8 359.845 333.559 359.845 333.304C359.845 333.052 359.946 332.808 360.125 332.63C360.304 332.451 360.547 332.35 360.801 332.35H439.467C439.722 332.35 439.963 332.451 440.143 332.63C440.322 332.808 440.422 333.052 440.422 333.304C440.422 333.559 440.322 333.8 440.143 333.981C439.963 334.159 439.722 334.259 439.467 334.259Z" fill="#181C61"/>
<path d="M439.467 341.779H359.424C359.172 341.779 358.929 341.677 358.75 341.498C358.571 341.32 358.47 341.077 358.47 340.824C358.47 340.569 358.571 340.328 358.75 340.148C358.929 339.969 359.172 339.869 359.424 339.869H439.467C439.72 339.869 439.963 339.969 440.142 340.148C440.322 340.328 440.422 340.569 440.422 340.824C440.422 341.077 440.322 341.32 440.142 341.498C439.963 341.677 439.72 341.779 439.467 341.779Z" fill="#181C61"/>
<path d="M439.467 348.724H356.307C356.055 348.724 355.811 348.624 355.633 348.445C355.454 348.265 355.353 348.022 355.353 347.769C355.353 347.516 355.454 347.273 355.633 347.095C355.811 346.916 356.055 346.814 356.307 346.814H439.467C439.72 346.814 439.963 346.916 440.143 347.095C440.322 347.273 440.422 347.516 440.422 347.769C440.422 348.022 440.322 348.265 440.143 348.445C439.963 348.624 439.72 348.724 439.467 348.724Z" fill="#181C61"/>
<path d="M414.308 362.322H335.617C335.363 362.322 335.121 362.222 334.941 362.041C334.762 361.863 334.663 361.62 334.663 361.367C334.663 361.114 334.762 360.871 334.941 360.692C335.121 360.512 335.363 360.412 335.617 360.412H414.308C414.562 360.412 414.804 360.512 414.984 360.692C415.163 360.871 415.262 361.114 415.262 361.367C415.262 361.62 415.163 361.863 414.984 362.041C414.804 362.222 414.562 362.322 414.308 362.322Z" fill="#181C61"/>
<path d="M415.143 368.976H336.453C336.198 368.976 335.957 368.874 335.777 368.696C335.598 368.517 335.498 368.274 335.498 368.021C335.498 367.767 335.598 367.525 335.777 367.345C335.957 367.166 336.198 367.066 336.453 367.066H415.143C415.396 367.066 415.639 367.166 415.819 367.345C415.998 367.525 416.098 367.767 416.098 368.021C416.098 368.274 415.998 368.517 415.819 368.696C415.639 368.874 415.396 368.976 415.143 368.976Z" fill="#181C61"/>
<path d="M415.549 377.655H336.859C336.605 377.655 336.362 377.554 336.183 377.375C336.004 377.196 335.904 376.953 335.904 376.699C335.904 376.446 336.004 376.203 336.183 376.024C336.362 375.846 336.605 375.744 336.859 375.744H415.549C415.802 375.744 416.045 375.846 416.224 376.024C416.404 376.203 416.504 376.446 416.504 376.699C416.504 376.953 416.404 377.196 416.224 377.375C416.045 377.554 415.802 377.655 415.549 377.655Z" fill="#181C61"/>
<path d="M414.871 385.175H334.824C334.571 385.175 334.328 385.074 334.149 384.895C333.971 384.716 333.869 384.473 333.869 384.22C333.869 383.968 333.971 383.724 334.149 383.544C334.328 383.365 334.571 383.266 334.824 383.266H414.871C415.124 383.266 415.367 383.365 415.546 383.544C415.726 383.724 415.826 383.968 415.826 384.22C415.826 384.473 415.726 384.716 415.546 384.895C415.367 385.074 415.124 385.175 414.871 385.175Z" fill="#181C61"/>
<path d="M216.532 145.578C214 145.611 211.502 144.989 209.281 143.774C209.078 143.636 208.934 143.424 208.883 143.184C208.831 142.943 208.875 142.692 209.005 142.482C209.134 142.273 209.339 142.122 209.577 142.06C209.815 141.998 210.068 142.031 210.284 142.151C212.517 143.319 215.036 143.832 217.55 143.631C221.708 143.33 224.663 139.458 224.711 139.42C224.785 139.319 224.88 139.234 224.988 139.17C225.096 139.106 225.215 139.063 225.339 139.045C225.463 139.027 225.588 139.033 225.711 139.064C225.833 139.095 225.947 139.149 226.047 139.224C226.149 139.299 226.232 139.393 226.297 139.501C226.361 139.609 226.405 139.728 226.422 139.852C226.44 139.976 226.434 140.103 226.403 140.224C226.372 140.346 226.318 140.46 226.244 140.561C226.1 140.747 222.748 145.173 217.707 145.536C217.292 145.564 216.906 145.578 216.532 145.578Z" fill="#181C61"/>
<path d="M225.994 141.621C225.775 141.621 225.562 141.545 225.393 141.406L223.231 139.649C223.047 139.485 222.936 139.258 222.917 139.013C222.898 138.769 222.973 138.527 223.128 138.337C223.283 138.147 223.505 138.023 223.748 137.992C223.989 137.961 224.236 138.024 224.434 138.169L226.596 139.926C226.749 140.051 226.858 140.219 226.911 140.409C226.965 140.599 226.958 140.8 226.892 140.985C226.826 141.171 226.705 141.332 226.544 141.446C226.383 141.559 226.192 141.621 225.994 141.621Z" fill="#181C61"/>
<path d="M208.292 145.268C208.207 145.269 208.121 145.257 208.039 145.235C207.919 145.202 207.806 145.145 207.706 145.068C207.606 144.991 207.524 144.895 207.461 144.786C207.4 144.677 207.36 144.557 207.344 144.432C207.329 144.308 207.337 144.182 207.371 144.06L208.183 141.091C208.249 140.847 208.41 140.639 208.63 140.513C208.849 140.387 209.11 140.354 209.355 140.42C209.599 140.487 209.807 140.648 209.933 140.867C210.058 141.087 210.092 141.348 210.026 141.592L209.215 144.566C209.158 144.768 209.038 144.946 208.872 145.073C208.706 145.2 208.501 145.268 208.292 145.268Z" fill="#181C61"/>
<path d="M155.825 79.6855H76.1455V174.332H155.825V79.6855Z" fill="#336CFF"/>
<path d="M155.825 175.282H76.1458C75.8926 175.282 75.6498 175.18 75.4706 175.001C75.2915 174.823 75.1909 174.58 75.1909 174.327V79.6852C75.1909 79.4319 75.2915 79.1892 75.4706 79.0101C75.6498 78.8309 75.8926 78.7305 76.1458 78.7305H155.825C156.078 78.7305 156.321 78.8309 156.5 79.0101C156.679 79.1892 156.78 79.4319 156.78 79.6852V174.327C156.78 174.58 156.679 174.823 156.5 175.001C156.321 175.18 156.078 175.282 155.825 175.282ZM77.1005 173.372H154.87V80.6401H77.1005V173.372Z" fill="#181C61"/>
<path d="M117.852 71.059C120.048 71.059 121.829 69.2785 121.829 67.0823C121.829 64.886 120.048 63.1055 117.852 63.1055C115.656 63.1055 113.875 64.886 113.875 67.0823C113.875 69.2785 115.656 71.059 117.852 71.059Z" fill="#336CFF"/>
<path d="M117.852 72.0193C116.876 72.0203 115.921 71.7315 115.109 71.1897C114.296 70.6478 113.663 69.8772 113.288 68.9753C112.914 68.0734 112.815 67.0807 113.005 66.1227C113.195 65.1649 113.665 64.2849 114.355 63.5941C115.045 62.9032 115.925 62.4326 116.883 62.2417C117.84 62.0509 118.833 62.1483 119.736 62.5218C120.638 62.8953 121.409 63.528 121.952 64.34C122.494 65.1517 122.784 66.1063 122.784 67.0829C122.783 68.3909 122.263 69.6451 121.338 70.5703C120.414 71.4958 119.16 72.0168 117.852 72.0193ZM117.852 64.061C117.253 64.06 116.667 64.2368 116.169 64.5691C115.67 64.9012 115.282 65.3739 115.052 65.9271C114.822 66.4805 114.762 67.0894 114.879 67.677C114.995 68.2645 115.284 68.8043 115.707 69.2279C116.131 69.6515 116.671 69.9399 117.258 70.0564C117.846 70.1732 118.455 70.1128 119.008 69.8832C119.561 69.6534 120.034 69.2648 120.366 68.7663C120.698 68.2677 120.875 67.682 120.874 67.0829C120.876 66.6851 120.798 66.2908 120.647 65.9228C120.496 65.5547 120.274 65.2202 119.993 64.9382C119.712 64.6562 119.379 64.4322 119.011 64.2793C118.644 64.1263 118.25 64.0473 117.852 64.0466V64.061Z" fill="#181C61"/>
<path d="M96.3645 80.5061C96.166 80.5061 95.9724 80.4445 95.8108 80.3295C95.649 80.2146 95.5271 80.052 95.4621 79.8645C95.3969 79.6771 95.3919 79.474 95.4474 79.2835C95.5031 79.093 95.6166 78.9246 95.7725 78.8018L113.809 64.4795C113.907 64.3994 114.02 64.3396 114.141 64.3034C114.262 64.2673 114.389 64.2556 114.515 64.2691C114.641 64.2825 114.763 64.3208 114.874 64.3818C114.984 64.4427 115.082 64.5251 115.161 64.6241C115.239 64.723 115.298 64.8366 115.332 64.9584C115.367 65.0801 115.377 65.2074 115.362 65.333C115.346 65.4586 115.306 65.58 115.244 65.6899C115.181 65.7999 115.098 65.8963 114.998 65.9738L96.9612 80.296C96.7919 80.4317 96.5815 80.506 96.3645 80.5061Z" fill="#181C61"/>
<path d="M137.216 80.2403C137.001 80.2403 136.792 80.168 136.624 80.035L121.237 67.8325C121.043 67.6735 120.919 67.4445 120.892 67.195C120.865 66.9454 120.938 66.6954 121.094 66.499C121.251 66.3025 121.478 66.1757 121.727 66.1456C121.976 66.1155 122.227 66.1847 122.426 66.3381L137.808 78.5406C137.906 78.6184 137.988 78.7148 138.05 78.8243C138.111 78.9338 138.15 79.0542 138.165 79.1788C138.179 79.3035 138.169 79.4297 138.135 79.5503C138.101 79.671 138.043 79.7839 137.965 79.8823C137.875 79.9945 137.761 80.0851 137.631 80.1471C137.502 80.2091 137.36 80.241 137.216 80.2403Z" fill="#181C61"/>
<path d="M313.885 209.426C313.7 209.426 313.518 209.373 313.364 209.271C313.209 209.172 313.087 209.028 313.011 208.859C300.469 180.691 251.904 165.486 251.426 165.338C251.3 165.305 251.182 165.249 251.079 165.17C250.978 165.091 250.891 164.993 250.828 164.88C250.765 164.768 250.725 164.644 250.711 164.515C250.698 164.386 250.709 164.256 250.748 164.133C250.785 164.009 250.848 163.895 250.931 163.795C251.015 163.697 251.118 163.617 251.234 163.559C251.348 163.501 251.475 163.467 251.604 163.459C251.733 163.451 251.863 163.47 251.984 163.514C261.097 166.51 269.937 170.272 278.414 174.763C291.255 181.579 307.99 192.904 314.745 208.08C314.81 208.225 314.837 208.384 314.826 208.544C314.814 208.703 314.763 208.856 314.676 208.99C314.589 209.123 314.471 209.233 314.331 209.31C314.191 209.386 314.035 209.426 313.876 209.426H313.885Z" fill="#181C61"/>
<path d="M288.945 313.672C288.71 313.674 288.483 313.588 288.306 313.432C288.131 313.276 288.018 313.06 287.991 312.827C287.957 312.531 284.648 282.833 296.585 262.107C296.648 261.999 296.73 261.904 296.83 261.827C296.929 261.75 297.044 261.695 297.164 261.661C297.285 261.629 297.412 261.621 297.536 261.637C297.662 261.653 297.781 261.693 297.89 261.756C297.998 261.819 298.093 261.903 298.171 262.002C298.246 262.102 298.303 262.215 298.336 262.337C298.369 262.458 298.377 262.585 298.361 262.709C298.345 262.833 298.304 262.954 298.241 263.062C286.601 283.234 289.839 312.317 289.871 312.608C289.902 312.859 289.831 313.112 289.673 313.31C289.517 313.51 289.288 313.638 289.037 313.667L288.945 313.672Z" fill="#181C61"/>
<path d="M293.987 271.241C293.904 271.241 293.822 271.23 293.743 271.207C293.622 271.175 293.508 271.118 293.408 271.043C293.308 270.967 293.224 270.87 293.162 270.763C293.099 270.655 293.059 270.534 293.041 270.41C293.025 270.284 293.033 270.159 293.065 270.036C296.497 257.195 288.473 243.302 288.391 243.183C288.312 243.075 288.257 242.951 288.23 242.821C288.203 242.691 288.201 242.555 288.23 242.425C288.257 242.293 288.312 242.171 288.39 242.063C288.468 241.953 288.568 241.863 288.684 241.795C288.8 241.729 288.927 241.686 289.061 241.672C289.193 241.657 289.328 241.672 289.455 241.712C289.583 241.752 289.7 241.82 289.8 241.908C289.898 241.997 289.979 242.106 290.033 242.229C290.388 242.819 298.55 256.923 294.908 270.548C294.85 270.748 294.73 270.924 294.564 271.049C294.398 271.173 294.195 271.241 293.987 271.241Z" fill="#181C61"/>
<path d="M309.374 238.605H309.221C308.972 238.564 308.746 238.428 308.598 238.223C308.45 238.017 308.389 237.761 308.429 237.511L314.014 203.009C314.034 202.885 314.079 202.768 314.145 202.66C314.211 202.554 314.296 202.46 314.399 202.388C314.5 202.314 314.615 202.262 314.737 202.233C314.859 202.204 314.987 202.199 315.111 202.219C315.233 202.24 315.352 202.283 315.458 202.349C315.566 202.415 315.658 202.502 315.732 202.603C315.804 202.705 315.858 202.821 315.887 202.943C315.916 203.064 315.92 203.191 315.899 203.315L310.314 237.822C310.274 238.041 310.158 238.241 309.986 238.384C309.814 238.527 309.598 238.605 309.374 238.605Z" fill="#181C61"/>
<path d="M370.515 252.532C370.277 252.534 370.047 252.445 369.87 252.286C369.694 252.125 369.583 251.906 369.561 251.667C369.388 249.882 365.317 207.832 365.98 197.005C366.643 186.177 365.822 171.425 364.921 162.153C364.017 152.882 359.278 126.654 358.308 122.491C357.721 119.965 355.444 116.413 352.445 114.795C351.472 114.261 350.394 113.95 349.288 113.884C348.18 113.818 347.072 113.999 346.043 114.413C345.807 114.501 345.544 114.492 345.314 114.387C345.084 114.283 344.905 114.091 344.817 113.854C344.817 113.821 342.696 109.08 331.128 112.575C330.924 112.637 330.703 112.629 330.504 112.551C330.431 112.522 328.475 111.825 325.815 113.305C322.412 115.215 317.699 120.767 314.549 136.522C314.52 136.656 314.462 136.782 314.38 136.891C314.297 137.001 314.191 137.091 314.07 137.157C313.955 137.224 313.826 137.267 313.69 137.281C313.557 137.295 313.422 137.28 313.293 137.238C312.921 137.114 304.179 134.306 301.754 140.651C300.155 144.833 300.756 146.857 301.669 149.918C302.47 152.373 302.965 154.917 303.139 157.494C303.211 158.64 303.234 160.072 303.263 161.73C303.435 172.261 303.741 191.867 317.68 204.324C317.87 204.493 317.986 204.729 318 204.984C318.015 205.238 317.928 205.486 317.759 205.676C317.59 205.866 317.353 205.982 317.099 205.996C316.844 206.011 316.595 205.924 316.407 205.755C301.863 192.741 301.535 172.594 301.353 161.767C301.353 160.139 301.305 158.726 301.234 157.623C301.066 155.187 300.596 152.782 299.835 150.462C298.88 147.273 298.139 144.733 299.968 139.959C302.222 134.053 308.886 134.106 312.858 135.113C316.2 119.321 321.241 113.587 324.946 111.572C327.715 110.064 329.989 110.427 330.829 110.651C341.212 107.591 344.945 110.746 346.105 112.355C347.296 111.995 348.545 111.875 349.782 112.002C351.02 112.13 352.218 112.503 353.309 113.1C356.866 115.01 359.434 119.039 360.136 122.042C361.091 126.229 365.866 152.596 366.787 161.958C367.708 171.32 368.519 186.134 367.851 197.124C367.197 207.798 371.385 251.072 371.427 251.487C371.451 251.738 371.375 251.988 371.214 252.183C371.055 252.377 370.823 252.501 370.572 252.527L370.515 252.532Z" fill="#181C61"/>
<path d="M318.654 186.878C318.427 186.883 318.208 186.806 318.033 186.663C317.859 186.519 317.74 186.318 317.7 186.096C316.415 179.168 312.266 171.331 312.224 171.253C312.163 171.142 312.123 171.02 312.11 170.894C312.095 170.769 312.106 170.642 312.143 170.519C312.179 170.399 312.238 170.284 312.319 170.186C312.399 170.088 312.498 170.007 312.61 169.948C312.721 169.888 312.844 169.851 312.971 169.84C313.097 169.829 313.224 169.841 313.345 169.88C313.465 169.917 313.578 169.98 313.675 170.06C313.771 170.143 313.852 170.242 313.908 170.357C314.085 170.685 318.239 178.524 319.575 185.748C319.599 185.871 319.598 185.998 319.572 186.122C319.546 186.244 319.496 186.362 319.425 186.465C319.355 186.569 319.264 186.658 319.158 186.726C319.054 186.795 318.936 186.841 318.812 186.864C318.759 186.874 318.707 186.878 318.654 186.878Z" fill="#181C61"/>
<path d="M312.583 153.187H312.516C312.263 153.17 312.028 153.053 311.86 152.862C311.695 152.672 311.611 152.423 311.627 152.17L312.688 136.253C312.704 136.001 312.822 135.765 313.012 135.599C313.203 135.432 313.451 135.348 313.704 135.365C313.957 135.383 314.192 135.499 314.359 135.69C314.525 135.881 314.61 136.13 314.593 136.382L313.533 152.299C313.516 152.54 313.408 152.765 313.232 152.93C313.057 153.095 312.823 153.187 312.583 153.187Z" fill="#181C61"/>
<path d="M322.369 149.742C322.119 149.742 321.881 149.644 321.702 149.47C321.524 149.296 321.421 149.06 321.414 148.811C321.38 147.579 320.712 118.538 330.261 110.904C330.358 110.817 330.471 110.749 330.595 110.707C330.718 110.665 330.849 110.649 330.979 110.659C331.11 110.67 331.235 110.707 331.351 110.768C331.467 110.829 331.569 110.913 331.649 111.015C331.731 111.118 331.791 111.235 331.825 111.361C331.858 111.487 331.866 111.619 331.849 111.748C331.829 111.877 331.784 112.001 331.715 112.112C331.647 112.223 331.557 112.319 331.449 112.394C322.641 119.44 323.333 148.467 323.333 148.763C323.34 149.015 323.246 149.26 323.073 149.443C322.899 149.627 322.66 149.734 322.408 149.742H322.369Z" fill="#181C61"/>
<path d="M334.576 140.984H334.542C334.291 140.973 334.052 140.862 333.882 140.676C333.711 140.49 333.621 140.244 333.631 139.991C333.669 139.084 334.704 117.739 345.313 112.645C345.538 112.552 345.791 112.548 346.02 112.635C346.248 112.722 346.433 112.893 346.54 113.114C346.646 113.334 346.664 113.586 346.588 113.819C346.514 114.051 346.353 114.246 346.139 114.364C336.562 118.966 335.545 139.862 335.535 140.072C335.524 140.319 335.418 140.552 335.239 140.722C335.06 140.891 334.822 140.986 334.576 140.984Z" fill="#181C61"/>
<path d="M329.797 200.671C329.557 200.672 329.326 200.582 329.148 200.42C328.971 200.255 328.862 200.032 328.843 199.793C327.563 184.167 331.172 163.62 334.973 149.598C339.093 134.407 342.669 129.547 349.69 129.547C355.926 129.547 356.332 136.818 356.633 142.126C356.667 142.757 356.699 143.373 356.742 143.965C357.133 149.44 358.581 160.507 358.595 160.616C358.628 160.87 358.558 161.126 358.402 161.327C358.248 161.53 358.017 161.662 357.765 161.696C357.51 161.728 357.254 161.659 357.053 161.503C356.85 161.348 356.718 161.118 356.686 160.865C356.686 160.755 355.219 149.631 354.823 144.098C354.78 143.501 354.747 142.876 354.709 142.232C354.364 136.125 353.778 131.456 349.678 131.456C344.492 131.456 341.083 134.321 336.786 150.118C333.03 163.963 329.459 184.276 330.718 199.658C330.739 199.911 330.659 200.161 330.494 200.352C330.33 200.545 330.097 200.664 329.846 200.685L329.797 200.671Z" fill="#181C61"/>
<path d="M326.904 157.17H326.856L321.552 156.907C321.427 156.901 321.304 156.87 321.19 156.816C321.077 156.763 320.974 156.687 320.891 156.594C320.807 156.501 320.741 156.392 320.699 156.274C320.657 156.155 320.638 156.03 320.644 155.904C320.651 155.779 320.681 155.656 320.736 155.542C320.789 155.429 320.865 155.327 320.958 155.243C321.052 155.159 321.159 155.093 321.279 155.051C321.396 155.009 321.522 154.991 321.647 154.997L326.952 155.265C327.205 155.271 327.445 155.378 327.62 155.561C327.794 155.745 327.889 155.99 327.883 156.243C327.876 156.497 327.77 156.737 327.587 156.911C327.403 157.086 327.157 157.181 326.904 157.174V157.17Z" fill="#181C61"/>
<path d="M316.798 160.883C316.629 160.88 316.464 160.832 316.32 160.745L312.338 158.358C312.121 158.227 311.965 158.016 311.903 157.77C311.842 157.524 311.881 157.264 312.011 157.047C312.142 156.83 312.353 156.674 312.599 156.612C312.845 156.551 313.104 156.59 313.322 156.72L317.303 159.107C317.482 159.214 317.622 159.376 317.701 159.569C317.78 159.762 317.793 159.975 317.738 160.176C317.685 160.378 317.566 160.556 317.401 160.683C317.236 160.811 317.034 160.881 316.827 160.883H316.798Z" fill="#181C61"/>
<path d="M108.427 158.326L86.9271 123.54C86.8251 123.375 86.8911 123.158 87.0679 123.077L101.029 116.74C101.197 116.664 101.394 116.744 101.462 116.915L108.464 134.568C108.56 134.809 108.887 134.844 109.031 134.628L135.954 94.2936C136.054 94.1449 136.255 94.1056 136.403 94.2061L146.847 101.3C146.994 101.4 147.033 101.599 146.934 101.746L108.969 158.336C108.838 158.53 108.55 158.525 108.427 158.326Z" fill="white"/>
<path fill-rule="evenodd" clip-rule="evenodd" d="M135.151 93.7565C135.548 93.1616 136.354 93.0043 136.946 93.4062L147.39 100.501C147.976 100.899 148.131 101.695 147.736 102.284L109.771 158.873C109.249 159.651 108.098 159.63 107.606 158.833L86.1054 124.047C85.6971 123.387 85.9617 122.518 86.6686 122.197L100.63 115.86C101.3 115.556 102.088 115.874 102.36 116.558L108.909 133.07L135.151 93.7565ZM136.397 95.3693L109.834 135.163C109.258 136.027 107.949 135.888 107.566 134.923L100.813 117.898L88.1335 123.654L108.724 156.967L145.775 101.739L136.397 95.3693ZM108.166 157.797C108.167 157.797 108.167 157.796 108.167 157.796L108.166 157.797ZM87.4681 123.956L87.4672 123.956L87.4681 123.956Z" fill="#181C61"/>
</svg>
