<svg width="53" height="53" viewBox="0 0 53 53" fill="none" xmlns="http://www.w3.org/2000/svg">
<path d="M40 33H10L0 43V3C0 2.33696 0.263392 1.70107 0.732233 1.23223C1.20107 0.763392 1.83696 0.5 2.5 0.5H40C40.663 0.5 41.2989 0.763392 41.7678 1.23223C42.2366 1.70107 42.5 2.33696 42.5 3V30.5C42.5 31.163 42.2366 31.7989 41.7678 32.2678C41.2989 32.7366 40.663 33 40 33ZM52.5 18V53L42.5 43H15C14.337 43 13.7011 42.7366 13.2322 42.2678C12.7634 41.7989 12.5 41.163 12.5 40.5V38H47.5V15.5H50C50.663 15.5 51.2989 15.7634 51.7678 16.2322C52.2366 16.7011 52.5 17.337 52.5 18ZM15.475 5.5C13.3 5.5 11.55 6 10.2 6.975C8.9 8 8.25 9.425 8.275 11.4L8.3 11.475H13.125C13.15 10.725 13.375 10.15 13.825 9.75C14.2879 9.36611 14.8737 9.16197 15.475 9.175C16.25 9.175 16.9 9.425 17.35 9.875C17.8 10.35 18 11 18 11.75C18 12.55 17.825 13.225 17.425 13.8C17.075 14.375 16.55 14.875 15.9 15.275C14.625 16.125 13.75 16.875 13.275 17.55C12.775 18.2 12.5 19.25 12.5 20.5H17.5C17.5 19.725 17.6 19.1 17.825 18.65C18.05 18.2 18.475 17.75 19.1 17.35C20.225 16.75 21.15 16.025 21.875 15.025C22.6 14.025 22.975 13 22.975 11.75C22.975 9.85 22.3 8.325 20.95 7.2C19.625 6.075 17.8 5.5 15.475 5.5ZM12.5 23V28H17.5V23H12.5ZM27.5 28H32.5V23H27.5V28ZM27.5 5.5V20.5H32.5V5.5H27.5Z" fill="white"/>
</svg>
