<svg width="61" height="61" viewBox="0 0 61 61" fill="none" xmlns="http://www.w3.org/2000/svg">
<path d="M56.0703 0.5H5.44531C2.85531 0.5 0.757812 2.6 0.757812 5.1875V55.8125C0.757812 58.4025 2.85781 60.5 5.44531 60.5H56.0703C58.6603 60.5 60.7578 58.4 60.7578 55.8125V5.1875C60.7578 2.5975 58.6578 0.5 56.0703 0.5ZM30.7578 47.375C29.2778 47.375 27.8345 47.275 26.4278 47.075C25.0228 48.065 16.8953 53.7725 16.1278 53.88C16.1278 53.88 15.8153 54.0025 15.5478 53.845C15.2803 53.6875 15.3278 53.2725 15.3278 53.2725C15.4078 52.7225 17.4353 45.7275 17.8078 44.44C10.9453 41.04 6.38281 35.0175 6.38281 28.1575C6.38281 17.5425 17.2953 8.9375 30.7578 8.9375C44.2203 8.9375 55.1328 17.5425 55.1328 28.1575C55.1328 38.7725 44.2203 47.375 30.7578 47.375ZM20.8828 25.1675H18.6878V33.5225C18.6878 34.2625 18.0578 34.865 17.2803 34.865C16.5028 34.865 15.8753 34.265 15.8753 33.5225V25.1675H13.6803C13.3329 25.1418 13.008 24.9857 12.7709 24.7304C12.5338 24.4752 12.402 24.1396 12.402 23.7912C12.402 23.4429 12.5338 23.1073 12.7709 22.8521C13.008 22.5968 13.3329 22.4407 13.6803 22.415H20.8803C21.2278 22.4407 21.5527 22.5968 21.7898 22.8521C22.0269 23.1073 22.1586 23.4429 22.1586 23.7912C22.1586 24.1396 22.0269 24.4752 21.7898 24.7304C21.5527 24.9857 21.2278 25.1418 20.8803 25.1675M48.3478 32.56C48.4598 32.7072 48.5416 32.875 48.5884 33.054C48.6351 33.2329 48.646 33.4193 48.6203 33.6025C48.5945 33.7851 48.5328 33.9609 48.4389 34.1196C48.3449 34.2784 48.2205 34.417 48.0728 34.5275C47.8297 34.7121 47.533 34.8121 47.2278 34.8125C47.0096 34.8133 46.7943 34.7631 46.5989 34.6658C46.4036 34.5686 46.2337 34.4271 46.1028 34.2525L42.8053 29.885L42.3178 30.3725V33.44C42.3172 33.8127 42.169 34.1699 41.9057 34.4336C41.6424 34.6974 41.2855 34.8462 40.9128 34.8475C40.5395 34.8475 40.1815 34.6992 39.9176 34.4353C39.6536 34.1713 39.5053 33.8133 39.5053 33.44V23.82C39.5206 23.4573 39.6755 23.1145 39.9375 22.8633C40.1996 22.6121 40.5485 22.4718 40.9116 22.4718C41.2746 22.4718 41.6236 22.6121 41.8856 22.8633C42.1477 23.1145 42.3025 23.4573 42.3178 23.82V26.845L46.2428 22.92C46.4502 22.7164 46.7297 22.6032 47.0203 22.605C47.3703 22.605 47.7253 22.7575 47.9903 23.0225C48.2306 23.2597 48.3771 23.5758 48.4028 23.9125C48.4155 24.0693 48.3943 24.227 48.3408 24.3749C48.2874 24.5228 48.2028 24.6575 48.0928 24.77L44.8878 27.9725L48.3478 32.56ZM27.4728 23.805C27.2353 23.13 26.5153 22.435 25.5978 22.415C24.6828 22.435 23.9628 23.13 23.7253 23.8025L20.3628 32.655C19.9353 33.98 20.3078 34.475 20.6953 34.655C20.9765 34.7795 21.2803 34.845 21.5878 34.8475C22.1753 34.8475 22.6228 34.61 22.7578 34.2275L23.4553 32.4025H27.7428L28.4403 34.2275C28.5753 34.61 29.0228 34.8475 29.6103 34.8475C29.918 34.8442 30.2218 34.7778 30.5028 34.6525C30.8903 34.475 31.2628 33.9825 30.8353 32.6525L27.4728 23.805ZM24.1953 29.9125L25.6003 25.9225L27.0028 29.9125H24.1953ZM38.9578 33.37C38.9486 33.7192 38.8019 34.0507 38.5495 34.2923C38.2972 34.5339 37.9596 34.6661 37.6103 34.66H33.1003C32.7506 34.6667 32.4124 34.5349 32.1595 34.2932C31.9066 34.0515 31.7595 33.7197 31.7503 33.37V23.82C31.7503 23.045 32.3953 22.415 33.1878 22.415C33.9803 22.415 34.6228 23.045 34.6228 23.82V32.0825H37.6103C38.3528 32.0825 38.9603 32.66 38.9603 33.37" fill="white"/>
</svg>
