<svg width="22" height="22" viewBox="0 0 22 22" fill="none" xmlns="http://www.w3.org/2000/svg">
<path d="M7.24928 14.7504L14.7493 7.25038M9.74928 3.50038L10.328 2.83038C11.5003 1.65829 13.0901 0.999883 14.7478 1C16.4056 1.00012 17.9953 1.65875 19.1674 2.83101C20.3395 4.00326 20.9979 5.59312 20.9978 7.25082C20.9977 8.90853 20.339 10.4983 19.1668 11.6704L18.4993 12.2504M12.2493 18.5004L11.753 19.1679C10.5668 20.34 8.96632 20.9973 7.29866 20.9973C5.63099 20.9973 4.03054 20.34 2.84428 19.1679C2.25942 18.5901 1.79508 17.9019 1.47816 17.1433C1.16124 16.3846 0.998047 15.5707 0.998047 14.7485C0.998047 13.9264 1.16124 13.1124 1.47816 12.3538C1.79508 11.5951 2.25942 10.907 2.84428 10.3291L3.49928 9.75038" stroke="white" stroke-width="2" stroke-linecap="round" stroke-linejoin="round"/>
</svg>
