<svg width="27" height="25" viewBox="0 0 27 25" fill="none" xmlns="http://www.w3.org/2000/svg">
<path d="M13.5007 0.75C20.7507 0.75 26.627 5.33 26.627 10.9813C26.627 16.6313 20.7507 21.2113 13.502 21.2113C12.7802 21.21 12.0593 21.1641 11.3432 21.0738L5.8332 24.6775C5.20695 25.0088 4.9857 24.9725 5.2432 24.1613L6.3582 19.5638C2.7582 17.7388 0.376953 14.5763 0.376953 10.9813C0.376953 5.33125 6.25195 0.75 13.502 0.75M20.887 10.825L22.7245 9.045C22.8305 8.93489 22.8896 8.78792 22.8894 8.63506C22.8893 8.48219 22.8298 8.33537 22.7235 8.22551C22.6172 8.11565 22.4724 8.05134 22.3196 8.04611C22.1668 8.04089 22.018 8.09516 21.9045 8.1975L19.4945 10.53V8.6025C19.4945 8.44602 19.4323 8.29595 19.3216 8.18531C19.211 8.07466 19.0609 8.0125 18.9045 8.0125C18.748 8.0125 18.5979 8.07466 18.4873 8.18531C18.3766 8.29595 18.3145 8.44602 18.3145 8.6025V11.7987C18.2937 11.8901 18.2937 11.9849 18.3145 12.0763V13.875C18.3145 14.0315 18.3766 14.1815 18.4873 14.2922C18.5979 14.4028 18.748 14.465 18.9045 14.465C19.0609 14.465 19.211 14.4028 19.3216 14.2922C19.4323 14.1815 19.4945 14.0315 19.4945 13.875V12.1713L20.0282 11.655L21.8132 14.1962C21.8578 14.2597 21.9144 14.3137 21.9799 14.3553C22.0453 14.3969 22.1183 14.4251 22.1947 14.4385C22.2711 14.4518 22.3493 14.45 22.425 14.4331C22.5007 14.4162 22.5723 14.3846 22.6357 14.34C22.6992 14.2954 22.7532 14.2388 22.7948 14.1734C22.8363 14.1079 22.8646 14.0349 22.8779 13.9585C22.8913 13.8821 22.8894 13.8039 22.8726 13.7282C22.8557 13.6525 22.824 13.5809 22.7795 13.5175L20.887 10.825ZM17.1895 13.23H15.3645V8.62125C15.3575 8.46963 15.2923 8.32654 15.1826 8.22172C15.0728 8.11689 14.9269 8.0584 14.7751 8.0584C14.6233 8.0584 14.4774 8.11689 14.3676 8.22172C14.2578 8.32654 14.1927 8.46963 14.1857 8.62125V13.82C14.1857 14.145 14.4482 14.41 14.7745 14.41H17.1895C17.3459 14.41 17.496 14.3478 17.6066 14.2372C17.7173 14.1265 17.7795 13.9765 17.7795 13.82C17.7795 13.6635 17.7173 13.5135 17.6066 13.4028C17.496 13.2922 17.3459 13.23 17.1895 13.23ZM9.8682 11.8662L10.7382 9.73125L11.5357 11.865L9.8682 11.8662ZM13.022 12.475L13.0245 12.455C13.024 12.3064 12.9673 12.1635 12.8657 12.055L11.5582 8.555C11.5034 8.38821 11.399 8.24212 11.2589 8.13624C11.1189 8.03037 10.9499 7.96976 10.7745 7.9625C10.5979 7.96242 10.4255 8.01574 10.2798 8.11546C10.1341 8.21519 10.022 8.35664 9.9582 8.52125L7.8807 13.615C7.82153 13.7599 7.82233 13.9223 7.88292 14.0666C7.94352 14.2109 8.05895 14.3252 8.20383 14.3844C8.3487 14.4436 8.51115 14.4428 8.65544 14.3822C8.79972 14.3216 8.91403 14.2061 8.9732 14.0613L9.3882 13.045H11.9757L12.3482 14.045C12.3736 14.1197 12.4138 14.1886 12.4663 14.2476C12.5188 14.3065 12.5826 14.3543 12.654 14.3882C12.7253 14.422 12.8027 14.4412 12.8816 14.4446C12.9604 14.4479 13.0392 14.4355 13.1131 14.4078C13.1871 14.3802 13.2548 14.3381 13.3121 14.2838C13.3695 14.2296 13.4154 14.1644 13.4471 14.0921C13.4788 14.0198 13.4957 13.9418 13.4968 13.8629C13.4978 13.784 13.483 13.7056 13.4532 13.6325L13.022 12.475ZM8.8682 8.6275C8.86853 8.55003 8.85354 8.47327 8.82408 8.40162C8.79463 8.32997 8.75129 8.26485 8.69657 8.21001C8.64185 8.15518 8.57683 8.11171 8.50524 8.0821C8.43366 8.05249 8.35692 8.03733 8.27945 8.0375H4.2232C4.06673 8.0375 3.91666 8.09966 3.80601 8.21031C3.69536 8.32095 3.6332 8.47102 3.6332 8.6275C3.6332 8.78398 3.69536 8.93405 3.80601 9.04469C3.91666 9.15534 4.06673 9.2175 4.2232 9.2175H5.6732V13.8875C5.6732 14.044 5.73536 14.194 5.84601 14.3047C5.95666 14.4153 6.10673 14.4775 6.2632 14.4775C6.41968 14.4775 6.56975 14.4153 6.6804 14.3047C6.79104 14.194 6.8532 14.044 6.8532 13.8875V9.2175H8.2782C8.35578 9.21783 8.43265 9.2028 8.50438 9.17326C8.57611 9.14373 8.64128 9.10028 8.69613 9.04543C8.75099 8.99058 8.79443 8.9254 8.82397 8.85367C8.8535 8.78194 8.86853 8.70507 8.8682 8.6275Z" fill="black"/>
</svg>
