<?xml version="1.0" standalone="no"?>
<!DOCTYPE svg PUBLIC "-//W3C//DTD SVG 20010904//EN"
 "http://www.w3.org/TR/2001/REC-SVG-20010904/DTD/svg10.dtd">
<svg version="1.0" xmlns="http://www.w3.org/2000/svg"
 width="2108.000000pt" height="1080.000000pt" viewBox="0 0 2108.000000 1080.000000"
 preserveAspectRatio="xMidYMid meet">

<g transform="translate(0.000000,1080.000000) scale(0.100000,-0.100000)"
fill="#000000" stroke="none">
<path d="M3765 9453 c-22 -54 -55 -159 -55 -174 0 -26 28 -49 59 -49 53 0 81
63 42 96 -17 15 -18 20 -5 68 8 28 14 57 14 64 0 19 -47 14 -55 -5z"/>
<path d="M3929 9443 c-29 -74 -49 -138 -49 -159 0 -52 74 -75 104 -32 21 30
20 47 -4 73 -19 20 -19 24 -5 71 20 66 19 74 -10 74 -19 0 -28 -8 -36 -27z"/>
<path d="M5200 9140 l0 -330 50 0 50 0 0 330 0 330 -50 0 -50 0 0 -330z"/>
<path d="M15420 9440 l0 -30 -75 0 -75 0 0 -40 0 -40 200 0 200 0 0 40 0 40
-80 0 -80 0 0 30 c0 29 -2 30 -45 30 -43 0 -45 -1 -45 -30z"/>
<path d="M7440 9145 l0 -315 45 0 45 0 0 315 0 315 -45 0 -45 0 0 -315z"/>
<path d="M8260 9350 l0 -110 -75 0 -75 0 0 -40 0 -39 73 -3 72 -3 3 -162 2
-163 40 0 40 0 0 315 0 315 -40 0 -40 0 0 -110z"/>
<path d="M8910 9145 l0 -315 40 0 40 0 0 315 0 315 -40 0 -40 0 0 -315z"/>
<path d="M9344 9398 c-34 -120 -131 -227 -220 -244 -33 -6 -34 -8 -34 -51 l0
-45 38 7 c69 13 124 45 186 109 l62 63 114 -83 c63 -46 120 -83 126 -84 12 0
44 42 44 58 0 5 -54 46 -120 91 -65 45 -122 85 -124 90 -3 5 1 29 10 54 22 64
16 80 -29 88 l-37 6 -16 -59z"/>
<path d="M10087 9453 c-4 -3 -7 -62 -7 -130 l0 -124 -32 3 c-33 3 -33 4 -40
66 -12 113 -62 177 -138 177 -69 0 -113 -64 -131 -192 -12 -82 -6 -207 13
-281 6 -24 25 -59 43 -78 28 -29 39 -34 77 -34 81 0 123 59 136 190 7 64 7 65
40 68 l32 3 0 -140 0 -141 40 0 40 0 0 310 0 310 -33 0 c-19 0 -37 -3 -40 -7z
m-170 -138 c17 -49 20 -263 4 -323 -9 -31 -18 -43 -36 -48 -13 -3 -28 -3 -34
0 -29 19 -48 197 -32 310 13 89 23 108 59 104 19 -2 28 -13 39 -43z"/>
<path d="M10230 9145 l0 -315 40 0 40 0 0 315 0 315 -40 0 -40 0 0 -315z"/>
<path d="M11028 9388 l-3 -73 -52 -3 c-53 -3 -53 -3 -53 -37 0 -34 0 -34 53
-37 l52 -3 3 -122 3 -123 39 0 40 0 0 235 0 235 -40 0 -39 0 -3 -72z"/>
<path d="M11660 9225 l0 -235 40 0 40 0 0 120 0 120 40 0 40 0 0 45 0 45 -40
0 -40 0 0 70 0 70 -40 0 -40 0 0 -235z"/>
<path d="M12330 9390 l0 -70 -50 0 -50 0 0 -40 0 -40 50 0 50 0 0 -80 0 -80
45 0 45 0 0 190 0 190 -45 0 -45 0 0 -70z"/>
<path d="M14430 9225 l0 -235 40 0 40 0 0 120 0 120 40 0 40 0 0 45 0 45 -40
0 -40 0 0 70 0 70 -40 0 -40 0 0 -235z"/>
<path d="M15730 9225 l0 -235 45 0 45 0 0 110 0 110 41 0 40 0 -3 43 c-3 41
-4 42 -40 45 l-38 3 0 80 0 79 -45 0 -45 0 0 -235z"/>
<path d="M16380 9145 l0 -315 45 0 45 0 0 145 0 145 40 0 40 0 0 45 0 45 -40
0 -40 0 0 125 0 125 -45 0 -45 0 0 -315z"/>
<path d="M4286 9439 c-113 -28 -165 -114 -120 -200 35 -69 199 -107 322 -75
74 19 108 39 128 77 35 69 5 142 -72 179 -56 26 -191 36 -258 19z m204 -87
c30 -15 35 -22 35 -52 0 -30 -5 -37 -35 -52 -23 -12 -58 -18 -100 -18 -42 0
-77 6 -100 18 -30 15 -35 22 -35 52 0 30 5 37 35 52 23 12 58 18 100 18 42 0
77 -6 100 -18z"/>
<path d="M7108 9440 c-78 -23 -128 -100 -128 -195 0 -108 69 -184 175 -193
110 -9 195 79 195 203 0 127 -123 221 -242 185z m91 -81 c58 -20 85 -125 48
-183 -22 -32 -82 -51 -119 -37 -87 33 -85 188 2 218 19 7 35 12 36 12 1 1 15
-4 33 -10z"/>
<path d="M10560 9410 l0 -40 75 0 75 0 0 -27 c-1 -67 -63 -153 -126 -173 -31
-11 -34 -15 -34 -51 0 -31 4 -39 18 -39 36 0 119 49 153 89 l35 42 78 -62 79
-63 23 29 c12 16 21 32 18 37 -3 4 -41 36 -86 69 -75 58 -80 63 -74 91 3 17 6
37 6 44 0 11 17 14 70 14 l70 0 0 40 0 40 -190 0 -190 0 0 -40z"/>
<path d="M11210 9270 l0 -180 180 0 180 0 0 180 0 180 -45 0 -45 0 0 -50 0
-50 -90 0 -90 0 0 50 0 50 -45 0 -45 0 0 -180z m270 -45 l0 -55 -90 0 -90 0 0
55 0 55 90 0 90 0 0 -55z"/>
<path d="M11870 9410 l0 -40 69 0 c39 0 72 -3 75 -8 2 -4 -4 -32 -14 -62 -21
-61 -65 -107 -111 -117 -27 -5 -29 -9 -29 -49 0 -43 1 -44 28 -38 46 11 85 34
129 77 l42 40 38 -25 c21 -15 57 -40 80 -57 l41 -31 21 26 c12 15 21 30 21 34
0 4 -38 34 -85 66 -68 47 -84 63 -80 79 3 11 5 30 5 43 0 21 4 22 76 22 l75 0
-3 38 -3 37 -187 3 -188 2 0 -40z"/>
<path d="M12713 9440 c-116 -24 -183 -96 -183 -195 0 -101 78 -173 208 -194
147 -24 274 29 317 131 40 97 -5 188 -116 237 -53 24 -165 34 -226 21z m194
-96 c34 -13 73 -66 73 -97 0 -32 -30 -76 -63 -93 -41 -22 -150 -29 -204 -15
-105 29 -124 152 -31 202 51 27 162 29 225 3z"/>
<path d="M13980 9275 l0 -175 180 0 180 0 -2 173 -3 172 -177 3 -178 2 0 -175z
m270 0 l0 -95 -90 0 -90 0 0 95 0 95 90 0 90 0 0 -95z"/>
<path d="M14650 9415 l0 -35 110 0 c63 0 110 -4 110 -9 0 -29 -130 -91 -192
-91 -26 0 -28 -3 -28 -40 0 -27 4 -40 14 -40 43 0 129 24 182 51 l61 31 129
-40 129 -40 13 29 c15 36 11 45 -25 53 -16 4 -65 18 -110 32 -67 20 -83 28
-83 44 0 19 7 20 110 20 l110 0 0 35 0 35 -265 0 -265 0 0 -35z"/>
<path d="M7937 9338 c-11 -182 -58 -319 -122 -361 -31 -20 -35 -26 -35 -69 l0
-47 32 10 c47 13 105 75 142 152 l34 69 63 -111 c35 -61 69 -111 74 -111 6 0
23 11 39 24 l30 23 -90 146 -90 146 7 58 c4 32 8 84 8 116 l1 57 -43 0 -44 0
-6 -102z"/>
<path d="M8460 9150 l0 -290 170 0 170 0 0 290 0 290 -45 0 -45 0 0 -100 0
-100 -85 0 -85 0 0 100 0 100 -40 0 -40 0 0 -290z m250 -100 l0 -100 -85 0
-85 0 0 100 0 100 85 0 85 0 0 -100z"/>
<path d="M13190 9400 l0 -40 220 0 220 0 0 -40 0 -40 -220 0 -220 0 0 -120 0
-120 110 0 110 0 0 -50 0 -50 -130 0 -130 0 0 -40 0 -40 300 0 300 0 0 40 0
40 -130 0 -130 0 0 50 0 50 115 0 115 0 0 40 0 40 -222 2 -223 3 -3 38 -3 37
220 0 221 0 0 120 0 120 -260 0 -260 0 0 -40z"/>
<path d="M15942 9153 l3 -288 160 1 c98 0 174 5 198 13 35 12 37 15 37 56 l0
43 -37 -14 c-23 -8 -84 -13 -156 -14 l-117 0 2 203 3 202 128 3 127 3 0 39 0
40 -175 0 -175 0 2 -287z"/>
<path d="M6375 9398 c-7 -18 -61 -143 -119 -277 -58 -135 -106 -248 -106 -253
0 -4 19 -8 43 -8 l42 0 23 59 c13 33 29 64 36 70 9 8 60 11 146 9 l133 -3 26
-67 26 -68 47 0 c27 0 48 2 48 4 0 2 -54 130 -119 283 l-119 278 -46 3 c-44 3
-47 1 -61 -30z m109 -326 c-30 -2 -78 -2 -108 0 l-54 3 39 95 c21 52 46 111
55 130 l16 35 53 -130 54 -130 -55 -3z"/>
<path d="M6780 9145 l0 -285 45 0 45 0 0 285 0 285 -45 0 -45 0 0 -285z"/>
<path d="M16600 9320 l0 -110 35 0 35 0 0 110 0 110 -35 0 -35 0 0 -110z"/>
<path d="M16750 9373 c0 -32 3 -82 6 -110 6 -49 9 -53 34 -53 24 0 28 5 34 38
3 20 6 70 6 110 l0 72 -40 0 -40 0 0 -57z"/>
<path d="M4770 9190 l0 -220 83 0 c80 0 238 15 285 27 21 5 23 10 19 41 -4 19
-8 36 -10 39 -3 2 -33 -1 -68 -6 -35 -5 -97 -13 -136 -16 l-73 -7 0 181 0 181
-50 0 -50 0 0 -220z"/>
<path d="M5440 9375 l0 -35 196 0 197 0 -6 -107 c-4 -60 -9 -126 -13 -149 l-6
-41 43 -7 c23 -4 46 -3 50 1 11 12 29 189 29 288 l0 85 -245 0 -245 0 0 -35z"/>
<path d="M15365 9280 c-69 -34 -97 -115 -59 -169 43 -60 198 -83 275 -39 70
39 88 127 36 176 -57 54 -178 69 -252 32z m173 -66 c64 -44 -11 -116 -104 -98
-63 12 -83 83 -31 104 36 14 111 11 135 -6z"/>
<path d="M14877 9223 c-4 -3 -7 -21 -7 -40 l0 -33 -125 0 -125 0 0 -35 0 -35
300 0 300 0 0 35 0 35 -130 0 -130 0 0 40 c0 40 0 40 -38 40 -21 0 -42 -3 -45
-7z"/>
<path d="M5600 9080 l0 -110 -110 0 -110 0 0 -40 0 -40 306 0 305 0 -3 38 -3
37 -147 3 -148 3 0 109 0 110 -45 0 -45 0 0 -110z"/>
<path d="M4090 9065 l0 -34 68 -3 67 -3 3 -107 3 -108 44 0 44 0 3 108 3 107
65 0 65 0 3 -107 3 -108 44 0 44 0 3 108 3 107 73 3 72 3 0 34 0 35 -305 0
-305 0 0 -35z"/>
<path d="M10592 8938 l3 -103 263 -3 262 -2 0 45 0 45 -220 0 -220 0 0 60 0
60 -45 0 -46 0 3 -102z"/>
<path d="M11232 8938 l3 -103 263 -3 262 -2 0 45 0 45 -220 0 -220 0 0 60 0
60 -45 0 -46 0 3 -102z"/>
<path d="M11890 9005 l0 -35 220 0 220 0 0 -70 0 -70 45 0 45 0 0 105 0 105
-265 0 -265 0 0 -35z"/>
<path d="M14002 8938 l3 -103 263 -3 262 -2 0 45 0 45 -220 0 -220 0 0 60 0
60 -45 0 -46 0 3 -102z"/>
<path d="M14650 8990 l0 -40 220 0 220 0 0 -60 0 -60 45 0 45 0 0 100 0 100
-265 0 -265 0 0 -40z"/>
<path d="M15310 8920 l0 -90 260 0 260 0 0 40 0 40 -217 2 -218 3 -3 48 -3 47
-40 0 -39 0 0 -90z"/>
<path d="M7335 8960 c-16 -4 -108 -8 -202 -9 l-173 -1 0 -46 0 -47 183 6 c100
3 196 10 212 15 26 7 30 13 33 50 3 45 2 46 -53 32z"/>
<path d="M9080 8900 l0 -40 300 0 300 0 0 40 0 40 -300 0 -300 0 0 -40z"/>
<path d="M12500 8900 l0 -40 300 0 300 0 0 40 0 40 -300 0 -300 0 0 -40z"/>
<path d="M2580 1280 c0 -153 2 -180 15 -180 12 0 15 17 15 90 l0 90 30 0 30 0
0 -90 c0 -73 3 -90 15 -90 13 0 15 27 15 180 0 153 -2 180 -15 180 -12 0 -15
-15 -15 -75 l0 -75 -30 0 -30 0 0 75 c0 60 -3 75 -15 75 -13 0 -15 -27 -15
-180z"/>
<path d="M2845 1446 c-43 -16 -62 -37 -72 -75 -7 -30 4 -49 48 -79 30 -21 43
-23 115 -20 65 2 87 7 104 23 53 47 45 111 -17 140 -49 24 -130 28 -178 11z
m173 -42 c15 -10 22 -24 22 -45 0 -25 -6 -32 -35 -45 -42 -17 -131 -18 -165
-1 -29 14 -39 67 -17 85 38 32 149 35 195 6z"/>
<path d="M3252 1398 l3 -63 148 -3 147 -3 0 66 c0 49 -3 65 -14 65 -7 0 -16
-9 -19 -20 -5 -18 -14 -20 -117 -20 -103 0 -112 2 -117 20 -3 11 -12 20 -20
20 -11 0 -13 -14 -11 -62z m266 -20 c3 -16 -8 -18 -117 -18 -115 0 -121 1
-121 20 0 20 5 21 117 18 103 -3 118 -5 121 -20z"/>
<path d="M3890 1325 c0 -113 2 -135 15 -135 12 0 15 15 15 75 0 73 1 75 25 75
16 0 25 6 25 15 0 9 -9 15 -25 15 -23 0 -25 4 -25 45 0 33 -4 45 -15 45 -13 0
-15 -22 -15 -135z"/>
<path d="M4010 1445 c0 -12 14 -15 64 -15 36 0 67 -4 70 -9 8 -13 -50 -60 -82
-67 -46 -10 -52 -13 -52 -28 0 -19 75 -3 113 25 l28 21 75 -28 c41 -15 77 -24
81 -20 10 10 -7 22 -62 41 -62 23 -75 33 -68 51 4 10 23 14 69 14 50 0 64 3
64 15 0 13 -23 15 -150 15 -127 0 -150 -2 -150 -15z"/>
<path d="M5970 1395 l0 -65 145 0 145 0 0 65 c0 51 -3 65 -15 65 -8 0 -15 -9
-15 -20 0 -19 -7 -20 -115 -20 -108 0 -115 1 -115 20 0 11 -7 20 -15 20 -12 0
-15 -14 -15 -65z m260 -15 c0 -19 -7 -20 -115 -20 -108 0 -115 1 -115 20 0 19
7 20 115 20 108 0 115 -1 115 -20z"/>
<path d="M6600 1325 c0 -128 1 -135 20 -135 18 0 20 7 20 75 0 73 1 75 25 75
16 0 25 6 25 15 0 9 -9 15 -25 15 -23 0 -25 4 -25 45 0 38 -3 45 -20 45 -19 0
-20 -7 -20 -135z"/>
<path d="M6730 1445 c0 -12 13 -15 65 -15 50 0 65 -3 65 -14 0 -21 -51 -54
-96 -64 -23 -5 -40 -14 -42 -24 -3 -13 4 -14 45 -7 26 5 60 18 75 29 26 19 26
19 103 -6 42 -15 79 -23 82 -20 11 10 -8 21 -75 46 -46 16 -62 27 -60 39 3 12
18 17 71 19 48 2 67 7 64 15 -2 8 -47 13 -150 15 -126 2 -147 0 -147 -13z"/>
<path d="M9750 1385 l0 -75 65 0 c58 0 65 -2 65 -20 0 -18 -7 -20 -81 -20 -60
0 -80 -3 -77 -12 4 -10 50 -14 176 -16 149 -2 172 0 172 13 0 12 -15 15 -80
15 -73 0 -80 2 -80 20 0 18 7 20 70 20 40 0 70 4 70 10 0 6 -52 10 -135 10
-128 0 -135 1 -135 20 0 19 7 20 130 20 80 0 130 4 130 10 0 6 -50 10 -130 10
-123 0 -130 1 -130 20 0 18 8 20 133 22 182 4 169 22 -18 26 l-145 3 0 -76z"/>
<path d="M2380 1285 l0 -165 75 0 75 0 0 165 0 165 -75 0 -75 0 0 -165z m120
0 l0 -135 -45 0 -45 0 0 128 c0 71 3 132 7 135 3 4 24 7 45 7 l38 0 0 -135z"/>
<path d="M3620 1355 l0 -95 100 0 100 0 0 95 0 95 -100 0 -100 0 0 -95z m170
0 l0 -65 -70 0 -70 0 0 65 0 65 70 0 70 0 0 -65z"/>
<path d="M6340 1355 l0 -95 100 0 100 0 0 95 0 95 -100 0 -100 0 0 -95z m170
0 l0 -65 -70 0 -70 0 0 65 0 65 70 0 70 0 0 -65z"/>
<path d="M9370 1345 l0 -105 65 0 65 0 0 -45 0 -44 -77 -3 c-61 -2 -78 -6 -78
-18 0 -13 27 -15 173 -18 167 -2 172 -2 172 18 0 18 -6 20 -81 20 l-80 0 3 43
3 42 68 3 67 3 0 104 c0 98 -1 105 -20 105 -16 0 -20 -7 -20 -35 l0 -35 -115
0 -115 0 0 35 c0 24 -5 35 -15 35 -12 0 -15 -18 -15 -105z m260 -35 l0 -40
-115 0 -115 0 0 40 0 40 115 0 115 0 0 -40z"/>
<path d="M12800 1295 l0 -155 35 0 35 0 0 75 c0 73 1 75 25 75 22 0 25 4 25
35 0 31 -3 35 -25 35 -23 0 -25 4 -25 45 0 45 0 45 -35 45 l-35 0 0 -155z"/>
<path d="M12960 1420 l0 -30 67 0 c62 0 66 -1 51 -16 -9 -9 -40 -22 -70 -28
-47 -11 -53 -15 -56 -41 l-4 -28 51 6 c27 3 67 15 89 26 l38 20 88 -25 c49
-14 90 -24 91 -22 2 2 5 14 7 27 2 21 -2 26 -32 33 -96 25 -110 29 -110 38 0
6 32 10 70 10 l70 0 0 30 0 30 -175 0 -175 0 0 -30z"/>
<path d="M15460 1245 l0 -205 30 0 30 0 0 90 c0 83 1 90 20 90 19 0 20 -7 20
-95 l0 -95 35 0 35 0 0 210 0 210 -35 0 -35 0 0 -80 c0 -73 -2 -80 -20 -80
-18 0 -20 7 -20 80 l0 80 -30 0 -30 0 0 -205z"/>
<path d="M15775 1435 c-69 -25 -104 -91 -75 -146 27 -50 163 -83 249 -59 94
25 131 112 73 170 -49 49 -163 65 -247 35z m186 -71 c45 -41 -1 -78 -97 -78
-68 0 -104 19 -104 56 0 10 1 18 3 18 1 0 20 7 42 15 49 19 130 13 156 -11z"/>
<path d="M16520 1295 l0 -155 30 0 30 0 0 75 c0 73 1 75 25 75 22 0 25 4 25
35 0 31 -3 35 -25 35 -23 0 -25 4 -25 45 0 43 -1 45 -30 45 l-30 0 0 -155z"/>
<path d="M16670 1420 l0 -29 73 -3 72 -3 -45 -22 c-25 -13 -57 -23 -72 -23
-25 0 -28 -4 -28 -31 l0 -32 47 7 c26 3 64 15 84 25 37 20 37 20 125 -5 68
-18 90 -21 96 -11 18 27 1 41 -70 60 -39 11 -72 24 -72 29 0 4 32 8 70 8 l70
0 0 30 0 30 -175 0 -175 0 0 -30z"/>
<path d="M12510 1325 l0 -115 120 0 120 0 0 115 0 115 -120 0 -120 0 0 -115z
m170 5 l0 -60 -50 0 -50 0 0 60 0 60 50 0 50 0 0 -60z"/>
<path d="M15242 1248 l3 -193 88 -3 87 -3 0 196 0 195 -90 0 -90 0 2 -192z
m118 2 l0 -130 -25 0 -25 0 0 130 0 130 25 0 25 0 0 -130z"/>
<path d="M16220 1325 l0 -115 120 0 120 0 0 115 0 115 -120 0 -120 0 0 -115z
m178 3 l3 -58 -56 0 -55 0 0 61 0 60 53 -3 52 -3 3 -57z"/>
<path d="M4147 1324 c-4 -4 -7 -16 -7 -26 0 -16 -9 -18 -75 -18 -60 0 -75 -3
-75 -15 0 -13 26 -15 170 -15 144 0 170 2 170 15 0 12 -15 15 -74 15 -69 0
-75 2 -78 22 -3 22 -19 33 -31 22z"/>
<path d="M6860 1305 c0 -23 -3 -24 -77 -27 -50 -2 -78 -7 -81 -15 -3 -10 36
-13 172 -13 150 0 176 2 176 15 0 12 -16 15 -80 15 -79 0 -80 0 -80 25 0 16
-6 25 -15 25 -9 0 -15 -9 -15 -25z"/>
<path d="M3230 1290 c0 -6 32 -10 75 -10 68 0 75 -2 75 -20 0 -18 -7 -20 -65
-20 -51 0 -65 -3 -65 -15 0 -13 22 -15 135 -15 113 0 135 -2 135 -15 0 -13
-22 -15 -135 -15 l-135 0 0 -40 0 -40 150 0 c189 0 204 18 18 22 -117 3 -133
5 -136 21 -3 15 8 17 132 17 l136 0 0 40 0 40 -65 0 c-58 0 -65 2 -65 20 0 18
7 20 75 20 43 0 75 4 75 10 0 6 -63 10 -170 10 -107 0 -170 -4 -170 -10z"/>
<path d="M5940 1290 c0 -6 33 -10 80 -10 73 0 80 -2 80 -20 0 -18 -7 -20 -65
-20 -51 0 -65 -3 -65 -15 0 -13 21 -15 130 -15 109 0 130 -2 130 -15 0 -13
-21 -15 -130 -15 l-130 0 0 -40 0 -40 150 0 c93 0 150 4 150 10 0 6 -52 10
-135 10 -128 0 -135 1 -135 20 0 19 7 20 136 20 l135 0 -3 38 -3 37 -68 3
c-58 2 -68 6 -65 20 3 14 17 18 81 20 42 2 77 7 77 12 0 6 -70 10 -175 10
-110 0 -175 -4 -175 -10z"/>
<path d="M13100 1270 c0 -18 -7 -20 -86 -20 l-85 0 3 -27 3 -28 200 0 200 0 3
28 3 27 -85 0 c-79 0 -86 2 -86 20 0 16 -7 20 -35 20 -28 0 -35 -4 -35 -20z"/>
<path d="M16810 1270 c0 -18 -7 -20 -80 -20 l-80 0 0 -30 0 -30 200 0 200 0 0
30 0 30 -85 0 c-78 0 -85 2 -85 20 0 16 -7 20 -35 20 -28 0 -35 -4 -35 -20z"/>
<path d="M2750 1210 c0 -18 7 -20 80 -20 l80 0 0 -50 c0 -38 4 -50 15 -50 11
0 15 12 15 50 l0 50 80 0 c73 0 80 2 80 20 0 19 -7 20 -175 20 -168 0 -175 -1
-175 -20z"/>
<path d="M3630 1160 l0 -60 150 0 c125 0 150 2 150 15 0 12 -24 15 -132 17
l-133 3 -3 43 c-2 28 -8 42 -18 42 -11 0 -14 -14 -14 -60z"/>
<path d="M6350 1160 l0 -60 150 0 c127 0 150 2 150 15 0 13 -22 15 -135 15
l-135 0 0 45 c0 33 -4 45 -15 45 -12 0 -15 -13 -15 -60z"/>
<path d="M9783 1195 c-25 -11 -33 -20 -33 -40 0 -41 52 -58 167 -53 80 3 95 6
115 26 28 28 17 51 -33 69 -47 16 -177 15 -216 -2z m192 -14 c48 -10 44 -38
-7 -52 -79 -21 -187 -3 -188 33 0 19 131 33 195 19z"/>
<path d="M4010 1190 c0 -5 55 -11 133 -12 l132 -3 3 -37 c2 -25 8 -38 18 -38
10 0 14 13 14 50 l0 50 -150 0 c-90 0 -150 -4 -150 -10z"/>
<path d="M6730 1190 c0 -6 50 -10 130 -10 l130 0 0 -40 c0 -33 3 -40 20 -40
17 0 20 7 20 50 l0 50 -150 0 c-93 0 -150 -4 -150 -10z"/>
<path d="M15670 1155 l0 -35 85 0 85 0 0 -50 c0 -49 1 -50 30 -50 29 0 30 1
30 50 l0 50 85 0 85 0 0 35 0 35 -200 0 -200 0 0 -35z"/>
<path d="M12524 1166 c-3 -7 -4 -40 -2 -72 l3 -59 175 0 175 0 0 30 0 30 -142
3 -143 3 0 39 c0 38 -2 40 -30 40 -17 0 -33 -6 -36 -14z"/>
<path d="M16240 1105 l0 -75 175 0 175 0 0 35 0 35 -145 0 -145 0 0 40 c0 38
-2 40 -30 40 l-30 0 0 -75z"/>
<path d="M12960 1135 l0 -25 140 0 140 0 0 -40 c0 -39 1 -40 35 -40 l35 0 0
65 0 65 -175 0 -175 0 0 -25z"/>
<path d="M16670 1135 l0 -24 143 -3 142 -3 3 -37 c3 -35 6 -38 33 -38 l29 0 0
65 0 65 -175 0 -175 0 0 -25z"/>
</g>
</svg>
