<svg width="29" height="28" viewBox="0 0 29 28" fill="none" xmlns="http://www.w3.org/2000/svg">
<path d="M24.9382 8.14376C23.9466 7.0471 22.2899 6.49876 19.8865 6.49876H19.6065V6.4521C19.6065 4.4921 19.6065 2.06543 15.2199 2.06543L13.4465 2.06543C9.05988 2.06543 9.05988 4.50376 9.05988 6.4521V6.51043H8.77988C6.36488 6.51043 4.71988 7.05876 3.72821 8.15543C2.57321 9.43876 2.60821 11.1654 2.72488 12.3438L2.73655 12.4254L2.83067 13.4137C2.84493 13.5635 2.9256 13.6988 3.05142 13.7812C3.32598 13.9613 3.82115 14.2815 4.11321 14.4438C4.27655 14.5488 4.45155 14.6421 4.62655 14.7354C6.62155 15.8321 8.81488 16.5671 11.0432 16.9288C11.1482 18.0254 11.6265 19.3088 14.1815 19.3088C16.7365 19.3088 17.2382 18.0371 17.3199 16.9054C19.6999 16.5204 21.9982 15.6921 24.0749 14.4788C24.1449 14.4438 24.1915 14.4088 24.2499 14.3738C24.7231 14.1063 25.2146 13.7753 25.6601 13.4528C25.773 13.371 25.8453 13.245 25.8607 13.1065L25.8832 12.9038L25.9416 12.3554C25.9532 12.2854 25.9532 12.2271 25.9649 12.1454C26.0582 10.9671 26.0349 9.3571 24.9382 8.14376ZM15.6049 16.1354C15.6049 17.3721 15.6049 17.5588 14.1699 17.5588C12.7349 17.5588 12.7349 17.3371 12.7349 16.1471V14.6771H15.6049V16.1354ZM10.7282 6.49876V6.4521C10.7282 4.46876 10.7282 3.73376 13.4465 3.73376H15.2199C17.9382 3.73376 17.9382 4.48043 17.9382 6.4521V6.51043L10.7282 6.51043V6.49876Z" fill="#FAF8F5"/>
<path d="M24.8227 15.9579C25.1759 15.789 25.5821 16.0695 25.5467 16.4595L25.1145 21.2212C24.8695 23.5545 23.9128 25.9345 18.7795 25.9345H9.88945C4.75612 25.9345 3.79945 23.5545 3.55445 21.2329L3.14374 16.715C3.1087 16.3296 3.50535 16.0492 3.85769 16.2094C5.16197 16.8023 7.77043 17.946 9.33417 18.347C9.4987 18.3891 9.63197 18.5068 9.70217 18.6614C10.4016 20.2024 11.9451 21.0229 14.1828 21.0229C16.3983 21.0229 17.9618 20.1708 18.6633 18.6266C18.7336 18.4718 18.8672 18.3542 19.0318 18.3119C20.6908 17.8849 23.4612 16.609 24.8227 15.9579Z" fill="#FAF8F5"/>
</svg>
