<svg width="29" height="28" viewBox="0 0 29 28" fill="none" xmlns="http://www.w3.org/2000/svg">
<path d="M22.5185 17.1149L17.6768 21.9566C17.4902 22.1433 17.3152 22.5049 17.2685 22.7616L17.0002 24.6166C16.9068 25.2816 17.3735 25.7599 18.0385 25.6549L19.8935 25.3866C20.1502 25.3516 20.5118 25.1649 20.6985 24.9783L25.5402 20.1366C26.3685 19.3083 26.7652 18.3283 25.5402 17.1033C24.3268 15.8899 23.3585 16.2749 22.5185 17.1149Z" fill="#F3F0E9"/>
<path d="M21.8281 17.8027C22.2365 19.2727 23.3915 20.4161 24.8615 20.8361L21.8281 17.8027Z" fill="#F3F0E9"/>
<path d="M3.03505 17.0684C3.03505 17.1034 3.01172 17.15 3.01172 17.185C4.08505 19.3317 5.83505 21.0934 7.98172 22.155C8.01672 22.155 8.06339 22.1317 8.09838 22.1317C7.70172 20.7784 7.39839 19.39 7.17672 18.0017C5.77672 17.7684 4.38839 17.465 3.03505 17.0684Z" fill="#F3F0E9"/>
<path d="M22.9141 7.50201C21.8174 5.20367 19.9624 3.34867 17.6758 2.26367C18.0958 3.65201 18.4458 5.07534 18.6791 6.49867C20.1024 6.73201 21.5258 7.07034 22.9141 7.50201Z" fill="#F3F0E9"/>
<path d="M2.91797 7.50242C4.31797 7.08242 5.7413 6.73242 7.16464 6.49909C7.39797 5.11076 7.68964 3.73409 8.0863 2.38076C8.0513 2.38076 8.00464 2.35742 7.96964 2.35742C5.7763 3.44242 3.9913 5.27409 2.91797 7.50242Z" fill="#F3F0E9"/>
<path d="M16.7896 6.25268C16.5096 4.73602 16.1596 3.21935 15.658 1.74935C15.6346 1.66768 15.6346 1.59768 15.623 1.50435C14.7596 1.29435 13.8496 1.16602 12.9163 1.16602C11.9713 1.16602 11.073 1.29435 10.198 1.51602C10.1863 1.59768 10.198 1.66768 10.1746 1.76102C9.68464 3.23102 9.32297 4.73602 9.04297 6.25268C11.6213 5.97268 14.2113 5.97268 16.7896 6.25268Z" fill="#F3F0E9"/>
<path d="M6.9187 8.37695C5.39037 8.65695 3.89703 9.01862 2.41536 9.50862C2.3337 9.53195 2.2637 9.53195 2.18203 9.54362C1.96036 10.407 1.83203 11.317 1.83203 12.2503C1.83203 13.1953 1.96036 14.0936 2.18203 14.9686C2.2637 14.9803 2.3337 14.9686 2.42703 14.992C3.89703 15.482 5.40203 15.8436 6.93036 16.1236C6.6387 13.5453 6.6387 10.9553 6.9187 8.37695Z" fill="#F3F0E9"/>
<path d="M23.6507 9.54362C23.569 9.54362 23.499 9.53195 23.4057 9.50862C21.9357 9.01862 20.419 8.65695 18.9023 8.37695C19.194 10.9553 19.194 13.5453 18.9023 16.112C20.419 15.832 21.9357 15.482 23.4057 14.9803C23.4873 14.957 23.5573 14.9686 23.6507 14.957C23.8607 14.082 24.0007 13.1836 24.0007 12.2386C24.0007 11.317 23.8723 10.4186 23.6507 9.54362Z" fill="#F3F0E9"/>
<path d="M9.04297 18.246C9.32297 19.7744 9.67297 21.2794 10.1746 22.7494C10.198 22.831 10.1863 22.901 10.198 22.9944C11.073 23.2044 11.9713 23.3327 12.9163 23.3327C13.8496 23.3327 14.7596 23.2044 15.623 22.9827C15.6346 22.901 15.6346 22.831 15.658 22.7377C16.148 21.2677 16.5096 19.7627 16.7896 18.2344C15.5063 18.3744 14.2113 18.4794 12.9163 18.4794C11.6213 18.4794 10.3263 18.386 9.04297 18.246Z" fill="#F3F0E9"/>
<path d="M8.77422 8.1082C8.42422 10.8615 8.42422 13.6382 8.77422 16.4032C11.5276 16.7532 14.3042 16.7532 17.0692 16.4032C17.4192 13.6499 17.4192 10.8732 17.0692 8.1082C14.3042 7.7582 11.5276 7.7582 8.77422 8.1082Z" fill="#F3F0E9"/>
</svg>
