<svg width="135" height="150" viewBox="0 0 135 150" fill="none" xmlns="http://www.w3.org/2000/svg">
<path d="M120 120H45C41.0218 120 37.2064 118.42 34.3934 115.607C31.5804 112.794 30 108.978 30 105V15C30 11.0218 31.5804 7.20644 34.3934 4.3934C37.2064 1.58035 41.0218 0 45 0H52.5V37.5L67.5 26.25L82.5 37.5V0H120C123.978 0 127.794 1.58035 130.607 4.3934C133.42 7.20644 135 11.0218 135 15V105C135 108.978 133.42 112.794 130.607 115.607C127.794 118.42 123.978 120 120 120ZM105 135V150H15C11.0218 150 7.20644 148.42 4.3934 145.607C1.58035 142.794 0 138.978 0 135V30H15V135H105Z" fill="#2EBB77"/>
</svg>
