<svg width="150" height="150" viewBox="0 0 150 150" fill="none" xmlns="http://www.w3.org/2000/svg">
<path d="M52.8018 25.86C57.2868 12.735 75.4218 12.3375 80.7393 24.6675L81.1893 25.8675L87.2418 43.5675C88.6289 47.6267 90.8704 51.3413 93.815 54.4607C96.7597 57.58 100.339 60.0316 104.312 61.65L105.939 62.2575L123.639 68.3025C136.764 72.7875 137.162 90.9225 124.839 96.24L123.639 96.69L105.939 102.742C101.879 104.129 98.1626 106.37 95.0419 109.314C91.9213 112.259 89.4685 115.839 87.8493 119.812L87.2418 121.432L81.1968 139.14C76.7118 152.265 58.5768 152.662 53.2668 140.34L52.8018 139.14L46.7568 121.44C45.3707 117.379 43.1296 113.663 40.1849 110.543C37.2401 107.422 33.6603 104.969 29.6868 103.35L28.0668 102.742L10.3668 96.6975C-2.76568 92.2125 -3.16318 74.0775 9.16682 68.7675L10.3668 68.3025L28.0668 62.2575C32.1261 60.8704 35.8406 58.629 38.96 55.6843C42.0793 52.7396 44.5309 49.1602 46.1493 45.1875L46.7568 43.5675L52.8018 25.86ZM126.999 1.35516e-06C128.402 -1.76979e-06 129.777 0.393587 130.968 1.13604C132.159 1.87849 133.117 2.94002 133.734 4.2L134.094 5.0775L136.719 12.7725L144.422 15.3975C145.828 15.8752 147.061 16.7596 147.964 17.9386C148.866 19.1176 149.399 20.5381 149.494 22.0202C149.589 23.5022 149.241 24.979 148.496 26.2634C147.751 27.5478 146.641 28.582 145.307 29.235L144.422 29.595L136.727 32.22L134.102 39.9225C133.623 41.3282 132.738 42.5602 131.559 43.4624C130.379 44.3646 128.959 44.8964 127.477 44.9904C125.995 45.0844 124.518 44.7363 123.234 43.9903C121.95 43.2443 120.917 42.134 120.264 40.8L119.904 39.9225L117.279 32.2275L109.577 29.6025C108.171 29.1248 106.938 28.2404 106.035 27.0614C105.132 25.8824 104.6 24.4619 104.505 22.9798C104.41 21.4978 104.757 20.021 105.503 18.7366C106.248 17.4522 107.358 16.418 108.692 15.765L109.577 15.405L117.272 12.78L119.897 5.0775C120.403 3.59569 121.359 2.30931 122.633 1.39874C123.907 0.488168 125.434 -0.00093961 126.999 1.35516e-06Z" fill="#2EBB77"/>
</svg>
