<svg width="165" height="164" viewBox="0 0 165 164" fill="none" xmlns="http://www.w3.org/2000/svg">
<path d="M7.5 157H153.75M15 89.4999V157M150 89.4999V157M48.75 51.9999V157M116.25 51.9999V157M7.5 89.4999H45M157.5 89.4999H120M41.25 51.9999H123.75M82.5 51.9999V29.3649M82.5 29.3649V14.2749C82.5 10.7199 82.5 8.94239 83.595 7.83989C87.045 4.36739 101.25 12.5724 106.65 15.9024C111.21 18.7074 112.5 24.3174 112.5 29.3649H82.5ZM82.5 157V142M71.25 81.9999V85.7499M93.75 81.9999V85.7499M71.25 112V115.75M93.75 112V115.75" stroke="#2EBB77" stroke-width="13.0714" stroke-linecap="round" stroke-linejoin="round"/>
</svg>
